<?xml version="1.0" encoding="UTF-8"?>
<!DOCTYPE svg PUBLIC "-//W3C//DTD SVG 1.1//EN" "http://www.w3.org/Graphics/SVG/1.1/DTD/svg11.dtd">
<svg xmlns="http://www.w3.org/2000/svg" version="1.1" width="252px" height="159px" style="shape-rendering:geometricPrecision; text-rendering:geometricPrecision; image-rendering:optimizeQuality; fill-rule:evenodd; clip-rule:evenodd" xmlns:xlink="http://www.w3.org/1999/xlink">
<g><path style="opacity:0.016" fill="#fefffe" d="M 112.5,-0.5 C 112.833,-0.5 113.167,-0.5 113.5,-0.5C 113.5,-0.166667 113.5,0.166667 113.5,0.5C 113.167,0.166667 112.833,-0.166667 112.5,-0.5 Z"/></g>
<g><path style="opacity:0.047" fill="#e9eae9" d="M 113.5,3.5 C 112.833,4.16667 112.833,4.16667 113.5,3.5 Z"/></g>
<g><path style="opacity:0.01" fill="#fefffe" d="M 114.5,5.5 C 114.5,10.5 114.5,15.5 114.5,20.5C 113.732,21.2625 113.232,22.2625 113,23.5C 112.333,18.1667 112.333,12.8333 113,7.5C 113.278,6.5842 113.778,5.91753 114.5,5.5 Z"/></g>
<g><path style="opacity:0.609" fill="#8c8c8c" d="M 115.5,2.5 C 115.827,12.6806 115.494,22.6806 114.5,32.5C 114.5,31.1667 114.5,29.8333 114.5,28.5C 114.5,27.8333 114.167,27.5 113.5,27.5C 113.5,27.1667 113.5,26.8333 113.5,26.5C 114.461,24.7354 114.795,22.7354 114.5,20.5C 114.5,15.5 114.5,10.5 114.5,5.5C 114.5,4.83333 114.5,4.16667 114.5,3.5C 114.5,2.83333 114.833,2.5 115.5,2.5 Z"/></g>
<g><path style="opacity:0.427" fill="#bcbcbc" d="M 114.5,-0.5 C 114.833,-0.5 115.167,-0.5 115.5,-0.5C 116.209,0.403972 117.209,0.737305 118.5,0.5C 117.872,11.2581 118.538,21.7581 120.5,32C 119.244,32.4169 118.577,33.2502 118.5,34.5C 117.833,23.6593 117.167,12.6593 116.5,1.5C 115.893,1.62358 115.56,1.95691 115.5,2.5C 114.833,2.5 114.5,2.83333 114.5,3.5C 114.167,3.5 113.833,3.5 113.5,3.5C 113.5,2.5 113.5,1.5 113.5,0.5C 114.167,0.5 114.5,0.166667 114.5,-0.5 Z"/></g>
<g><path style="opacity:0.008" fill="#fefffe" d="M 89.5,19.5 C 90.8333,20.1667 90.8333,20.1667 89.5,19.5 Z"/></g>
<g><path style="opacity:0.017" fill="#eeeeee" d="M 89.5,20.5 C 89.1667,21.1667 88.8333,21.8333 88.5,22.5C 87.8333,22.5 87.1667,22.5 86.5,22.5C 86.8212,20.9519 87.8212,20.2852 89.5,20.5 Z"/></g>
<g><path style="opacity:0.384" fill="#e3e3e3" d="M 96.5,23.5 C 94.8828,22.962 93.2161,22.6287 91.5,22.5C 91.1667,22.5 90.8333,22.5 90.5,22.5C 91.281,20.6777 92.4477,20.0111 94,20.5C 95.417,21.0779 96.2504,22.0779 96.5,23.5 Z"/></g>
<g><path style="opacity:0.011" fill="#fbfbfc" d="M 88.5,22.5 C 89.1667,22.5 89.8333,22.5 90.5,22.5C 90.5,23.1667 90.8333,23.5 91.5,23.5C 91.7822,24.7777 92.4489,25.7777 93.5,26.5C 90.8333,26.8333 90.8333,27.1667 93.5,27.5C 92.6016,28.1577 91.6016,28.8243 90.5,29.5C 90.9377,30.5063 91.6043,30.5063 92.5,29.5C 93.2975,29.9569 93.6309,30.6236 93.5,31.5C 91.9519,31.8212 91.2852,32.8212 91.5,34.5C 91.0359,38.3713 90.3693,42.538 89.5,47C 89.8333,47.3333 90.1667,47.6667 90.5,48C 89.9152,49.3024 89.2485,50.469 88.5,51.5C 88.5,41.8333 88.5,32.1667 88.5,22.5 Z"/></g>
<g><path style="opacity:0.012" fill="#fefffe" d="M 141.5,23.5 C 142.833,24.1667 142.833,24.1667 141.5,23.5 Z"/></g>
<g><path style="opacity:0.173" fill="#efefef" d="M 95.5,27.5 C 99.1513,28.6589 102.485,30.3256 105.5,32.5C 104.833,32.5 104.5,32.8333 104.5,33.5C 101.813,32.9394 101.813,33.6061 104.5,35.5C 104.5,35.8333 104.5,36.1667 104.5,36.5C 101.843,36.0652 99.5093,35.0652 97.5,33.5C 98.8333,33.1667 98.8333,32.8333 97.5,32.5C 97.5,31.8333 97.1667,31.5 96.5,31.5C 96.9175,30.7784 97.5842,30.2784 98.5,30C 97.0577,29.6232 96.0577,28.7899 95.5,27.5 Z"/></g>
<g><path style="opacity:0.788" fill="#9b9b9b" d="M 80.5,27.5 C 79.0892,29.914 77.0892,31.5806 74.5,32.5C 75.9108,30.086 77.9108,28.4194 80.5,27.5 Z"/></g>
<g><path style="opacity:1" fill="#4a4a4b" d="M 86.5,22.5 C 87.1667,22.5 87.8333,22.5 88.5,22.5C 88.5,32.1667 88.5,41.8333 88.5,51.5C 88.5,52.5 88.5,53.5 88.5,54.5C 74.6728,55.6607 60.6728,55.8273 46.5,55C 47.7101,53.9609 48.7101,52.7942 49.5,51.5C 51.0269,51.573 52.0269,50.9063 52.5,49.5C 53.5,49.1667 54.1667,48.5 54.5,47.5C 56.4044,47.2624 57.7377,46.2624 58.5,44.5C 59.7095,44.0679 60.7095,43.4013 61.5,42.5C 62.5045,41.3172 63.3378,39.9839 64,38.5C 64.3826,39.056 64.8826,39.3893 65.5,39.5C 67.889,39.0212 69.5557,37.6879 70.5,35.5C 71.8717,34.4884 73.205,33.4884 74.5,32.5C 77.0892,31.5806 79.0892,29.914 80.5,27.5C 81.895,25.1388 83.895,23.4721 86.5,22.5 Z"/></g>
<g><path style="opacity:0.061" fill="#f0f0f0" d="M 141.5,25.5 C 141.889,31.1087 142.889,36.6087 144.5,42C 141.833,42.6667 141.833,43.3333 144.5,44C 142.381,44.3418 142.047,45.1751 143.5,46.5C 141.539,39.9131 140.872,32.9131 141.5,25.5 Z"/></g>
<g><path style="opacity:0.031" fill="#fefffe" d="M 52.5,32.5 C 51.8333,31.1667 51.8333,31.1667 52.5,32.5 Z"/></g>
<g><path style="opacity:0.008" fill="#fefffe" d="M 59.5,31.5 C 60.8333,32.1667 60.8333,32.1667 59.5,31.5 Z"/></g>
<g><path style="opacity:0.008" fill="#fefffe" d="M 50.5,33.5 C 49.8333,32.1667 49.8333,32.1667 50.5,33.5 Z"/></g>
<g><path style="opacity:0.012" fill="#f1f1f1" d="M 74.5,32.5 C 73.205,33.4884 71.8717,34.4884 70.5,35.5C 69.4019,34.603 69.4019,33.7697 70.5,33C 71.7932,32.51 73.1266,32.3433 74.5,32.5 Z"/></g>
<g><path style="opacity:0.014" fill="#f4f4f4" d="M 105.5,32.5 C 106.492,32.3284 107.158,32.6618 107.5,33.5C 110.241,33.7073 112.574,34.7073 114.5,36.5C 114.5,37.5 114.5,38.5 114.5,39.5C 114.167,39.5 113.833,39.5 113.5,39.5C 112.5,38.1667 111.5,38.1667 110.5,39.5C 108.181,39.0075 106.181,38.0075 104.5,36.5C 105.833,36.1667 105.833,35.8333 104.5,35.5C 104.5,34.8333 104.5,34.1667 104.5,33.5C 105.167,33.5 105.5,33.1667 105.5,32.5 Z"/></g>
<g><path style="opacity:1" fill="#484849" d="M 52.5,33.5 C 54.5,33.5 56.5,33.5 58.5,33.5C 58.9347,36.8375 58.2681,39.8375 56.5,42.5C 55.1667,43.1667 54.1667,44.1667 53.5,45.5C 52.5166,41.7016 52.1832,37.7016 52.5,33.5 Z"/></g>
<g><path style="opacity:0.02" fill="#fefffe" d="M 68.5,35.5 C 67.8333,34.1667 67.8333,34.1667 68.5,35.5 Z"/></g>
<g><path style="opacity:0.413" fill="#d6d6d7" d="M 59.5,32.5 C 59.4977,34.571 59.8311,36.7377 60.5,39C 57.7406,41.4837 58.074,42.6503 61.5,42.5C 60.7095,43.4013 59.7095,44.0679 58.5,44.5C 58.5,43.8333 58.1667,43.5 57.5,43.5C 57.5,42.8333 57.1667,42.5 56.5,42.5C 58.2681,39.8375 58.9347,36.8375 58.5,33.5C 56.5,33.5 54.5,33.5 52.5,33.5C 52.5,33.1667 52.5,32.8333 52.5,32.5C 54.8333,32.5 57.1667,32.5 59.5,32.5 Z"/></g>
<g><path style="opacity:0.004" fill="#fefffe" d="M 65.5,37.5 C 64.8333,36.1667 64.8333,36.1667 65.5,37.5 Z"/></g>
<g><path style="opacity:0.247" fill="#e1e1e2" d="M 50.5,33.5 C 51.1667,33.5 51.8333,33.5 52.5,33.5C 52.1832,37.7016 52.5166,41.7016 53.5,45.5C 51.9689,46.9245 52.3023,47.5912 54.5,47.5C 54.1667,48.5 53.5,49.1667 52.5,49.5C 52.0825,48.7784 51.4158,48.2784 50.5,48C 50.7898,46.522 50.7898,45.022 50.5,43.5C 51.1683,40.5033 51.1683,37.17 50.5,33.5 Z"/></g>
<g><path style="opacity:0.973" fill="#9c9c9c" d="M 68.5,35.5 C 69.1667,35.5 69.8333,35.5 70.5,35.5C 69.5557,37.6879 67.889,39.0212 65.5,39.5C 65.5,38.8333 65.5,38.1667 65.5,37.5C 66.7095,37.0679 67.7095,36.4013 68.5,35.5 Z"/></g>
<g><path style="opacity:0.02" fill="#f1f1f1" d="M 93.5,35.5 C 96.4848,36.3257 99.1515,37.659 101.5,39.5C 97.5728,40.87 94.9061,39.5367 93.5,35.5 Z"/></g>
<g><path style="opacity:1" fill="#5b5b5b" d="M 93.5,31.5 C 94.5,31.5 95.5,31.5 96.5,31.5C 97.1667,31.5 97.5,31.8333 97.5,32.5C 97.5,32.8333 97.5,33.1667 97.5,33.5C 99.5093,35.0652 101.843,36.0652 104.5,36.5C 106.181,38.0075 108.181,39.0075 110.5,39.5C 112.175,41.456 111.842,42.7893 109.5,43.5C 108.508,43.6716 107.842,43.3382 107.5,42.5C 107.158,41.6618 106.492,41.3284 105.5,41.5C 103.847,41.3404 102.514,40.6737 101.5,39.5C 99.1515,37.659 96.4848,36.3257 93.5,35.5C 92.5084,35.6716 91.8417,35.3382 91.5,34.5C 91.2852,32.8212 91.9519,31.8212 93.5,31.5 Z"/></g>
<g><path style="opacity:0.017" fill="#f9f9f9" d="M 105.5,41.5 C 106.492,41.3284 107.158,41.6618 107.5,42.5C 106.719,44.6281 105.719,44.7947 104.5,43C 105.056,42.6174 105.389,42.1174 105.5,41.5 Z"/></g>
<g><path style="opacity:0.004" fill="#fefffe" d="M 50.5,43.5 C 49.8333,44.1667 49.8333,44.1667 50.5,43.5 Z"/></g>
<g><path style="opacity:0.02" fill="#f0f0f1" d="M 56.5,42.5 C 57.1667,42.5 57.5,42.8333 57.5,43.5C 58.1667,43.5 58.5,43.8333 58.5,44.5C 57.7377,46.2624 56.4044,47.2624 54.5,47.5C 54.6716,46.5084 54.3382,45.8417 53.5,45.5C 54.1667,44.1667 55.1667,43.1667 56.5,42.5 Z"/></g>
<g><path style="opacity:1" fill="#4a4a4b" d="M 118.5,34.5 C 119.167,34.8333 119.833,35.1667 120.5,35.5C 121.5,36.1667 122.5,36.8333 123.5,37.5C 123.5,38.5 123.5,39.5 123.5,40.5C 122.609,39.8902 121.609,39.5569 120.5,39.5C 118.368,36.6852 117.368,37.0185 117.5,40.5C 117.11,42.9818 118.11,44.3152 120.5,44.5C 120.842,45.3382 121.508,45.6716 122.5,45.5C 122.842,46.3382 123.508,46.6716 124.5,46.5C 125.492,46.3284 126.158,46.6618 126.5,47.5C 127.514,48.6737 128.847,49.3404 130.5,49.5C 130.833,49.5 131.167,49.5 131.5,49.5C 131.842,50.3382 132.508,50.6716 133.5,50.5C 134.848,51.6006 136.348,52.6006 138,53.5C 138.167,52.5 138.333,51.5 138.5,50.5C 138.36,48.9704 137.693,47.9704 136.5,47.5C 135.713,45.8958 134.38,45.2291 132.5,45.5C 131.833,44.8333 131.167,44.1667 130.5,43.5C 130.821,41.9519 131.821,41.2852 133.5,41.5C 137.492,45.8887 139.159,45.2221 138.5,39.5C 138.818,34.9677 138.485,30.6344 137.5,26.5C 137.5,26.1667 137.5,25.8333 137.5,25.5C 138.222,25.0825 138.722,24.4158 139,23.5C 139.671,24.2524 140.504,24.5858 141.5,24.5C 141.5,24.8333 141.5,25.1667 141.5,25.5C 140.872,32.9131 141.539,39.9131 143.5,46.5C 144.167,46.5 144.833,46.5 145.5,46.5C 145.5,47.1667 145.833,47.5 146.5,47.5C 147.189,48.7736 148.023,48.7736 149,47.5C 149.464,48.0944 149.631,48.7611 149.5,49.5C 149.715,51.1788 149.048,52.1788 147.5,52.5C 142.439,47.6552 140.772,48.6552 142.5,55.5C 143.417,56.1272 144.417,56.4606 145.5,56.5C 145.842,57.3382 146.508,57.6716 147.5,57.5C 148.514,58.6737 149.847,59.3404 151.5,59.5C 152.167,59.5 152.833,59.5 153.5,59.5C 153.5,59.8333 153.5,60.1667 153.5,60.5C 155.426,62.2927 157.759,63.2927 160.5,63.5C 165.516,66.6745 170.849,69.3412 176.5,71.5C 179.304,73.4046 182.304,75.0713 185.5,76.5C 186.492,76.3284 187.158,76.6618 187.5,77.5C 187.179,79.0481 186.179,79.7148 184.5,79.5C 183.486,78.3263 182.153,77.6596 180.5,77.5C 178.716,77.1075 177.05,76.4408 175.5,75.5C 175.158,74.6618 174.492,74.3284 173.5,74.5C 172.833,74.5 172.167,74.5 171.5,74.5C 171.5,73.8333 171.167,73.5 170.5,73.5C 170.5,72.8333 170.167,72.5 169.5,72.5C 168.71,71.5987 167.71,70.9321 166.5,70.5C 165.883,70.6107 165.383,70.944 165,71.5C 164.722,70.5842 164.222,69.9175 163.5,69.5C 162.71,68.5987 161.71,67.9321 160.5,67.5C 159.209,67.7373 158.209,67.404 157.5,66.5C 156.486,65.3263 155.153,64.6596 153.5,64.5C 153.158,63.6618 152.492,63.3284 151.5,63.5C 151.167,63.5 150.833,63.5 150.5,63.5C 150.027,62.0937 149.027,61.427 147.5,61.5C 146.391,61.4431 145.391,61.1098 144.5,60.5C 142.957,58.4433 141.957,58.4433 141.5,60.5C 139.534,59.7455 139.2,58.5788 140.5,57C 139.906,56.5357 139.239,56.369 138.5,56.5C 137.833,56.5 137.167,56.5 136.5,56.5C 134.181,56.0075 132.181,55.0075 130.5,53.5C 129.486,52.3263 128.153,51.6596 126.5,51.5C 125.508,51.6716 124.842,51.3382 124.5,50.5C 123.486,49.3263 122.153,48.6596 120.5,48.5C 119.791,47.596 118.791,47.2627 117.5,47.5C 117.5,62.5 117.5,77.5 117.5,92.5C 116.833,92.5 116.167,92.5 115.5,92.5C 115.667,76.8298 115.5,61.1631 115,45.5C 113.642,43.5957 113.809,41.5957 115.5,39.5C 115.48,38.2739 115.147,37.2739 114.5,36.5C 112.574,34.7073 110.241,33.7073 107.5,33.5C 107.158,32.6618 106.492,32.3284 105.5,32.5C 102.485,30.3256 99.1513,28.6589 95.5,27.5C 94.8333,27.5 94.1667,27.5 93.5,27.5C 93.5,27.1667 93.5,26.8333 93.5,26.5C 92.4489,25.7777 91.7822,24.7777 91.5,23.5C 91.5,23.1667 91.5,22.8333 91.5,22.5C 93.2161,22.6287 94.8828,22.962 96.5,23.5C 97.5137,24.6737 98.847,25.3404 100.5,25.5C 101.598,26.397 101.598,27.2303 100.5,28C 101.416,28.3742 102.25,28.8742 103,29.5C 104.776,28.4639 106.609,28.4639 108.5,29.5C 109.514,30.6737 110.847,31.3404 112.5,31.5C 112.842,32.3382 113.508,32.6716 114.5,32.5C 115.494,22.6806 115.827,12.6806 115.5,2.5C 115.56,1.95691 115.893,1.62358 116.5,1.5C 117.167,12.6593 117.833,23.6593 118.5,34.5 Z M 128.5,43.5 C 128.833,44.1667 129.167,44.8333 129.5,45.5C 128.833,45.5 128.167,45.5 127.5,45.5C 127.328,44.5084 127.662,43.8417 128.5,43.5 Z M 124.5,41.5 C 124.328,42.4916 124.662,43.1583 125.5,43.5C 125.158,44.3382 124.492,44.6716 123.5,44.5C 123.263,43.209 123.596,42.209 124.5,41.5 Z M 120.5,39.5 C 120.5,40.1667 120.5,40.8333 120.5,41.5C 120.167,41.5 119.833,41.5 119.5,41.5C 117.969,40.0755 118.302,39.4088 120.5,39.5 Z M 108.5,27.5 C 108.833,27.5 109.167,27.5 109.5,27.5C 110.167,28.1667 110.833,28.8333 111.5,29.5C 110.5,29.5 109.5,29.5 108.5,29.5C 108.5,28.8333 108.5,28.1667 108.5,27.5 Z M 124.5,46.5 C 125.209,45.596 126.209,45.2627 127.5,45.5C 127.842,46.3382 128.508,46.6716 129.5,46.5C 128.791,47.404 127.791,47.7373 126.5,47.5C 126.158,46.6618 125.492,46.3284 124.5,46.5 Z M 131.5,49.5 C 131.167,49.5 130.833,49.5 130.5,49.5C 130.511,46.9991 131.178,46.8324 132.5,49C 132.272,49.3988 131.938,49.5654 131.5,49.5 Z"/></g>
<g><path style="opacity:0.019" fill="#f3f3f3" d="M 126.5,42.5 C 127.492,42.3284 128.158,42.6618 128.5,43.5C 127.662,43.8417 127.328,44.5084 127.5,45.5C 126.209,45.2627 125.209,45.596 124.5,46.5C 123.508,46.6716 122.842,46.3382 122.5,45.5C 123.167,45.5 123.5,45.1667 123.5,44.5C 124.492,44.6716 125.158,44.3382 125.5,43.5C 126.167,43.5 126.5,43.1667 126.5,42.5 Z"/></g>
<g><path style="opacity:0.017" fill="#efeff1" d="M 138.5,39.5 C 139.159,45.2221 137.492,45.8887 133.5,41.5C 134.492,41.6716 135.158,41.3382 135.5,40.5C 136.391,39.8902 137.391,39.5569 138.5,39.5 Z"/></g>
<g><path style="opacity:0.996" fill="#6f6f70" d="M 126.5,36.5 C 127.678,39.2165 128.678,39.5499 129.5,37.5C 130.158,38.3984 130.824,39.3984 131.5,40.5C 132.666,38.2612 133.999,38.2612 135.5,40.5C 134.508,40.3284 133.842,40.6618 133.5,41.5C 131.821,41.2852 130.821,41.9519 130.5,43.5C 129.833,43.5 129.167,43.5 128.5,43.5C 128.158,42.6618 127.492,42.3284 126.5,42.5C 125.833,42.5 125.5,42.8333 125.5,43.5C 124.662,43.1583 124.328,42.4916 124.5,41.5C 124.5,40.8333 124.167,40.5 123.5,40.5C 123.5,39.5 123.5,38.5 123.5,37.5C 123.833,37.5 124.167,37.5 124.5,37.5C 125.167,37.1667 125.833,36.8333 126.5,36.5 Z"/></g>
<g><path style="opacity:0.018" fill="#f2f2f2" d="M 120.5,39.5 C 121.609,39.5569 122.609,39.8902 123.5,40.5C 124.167,40.5 124.5,40.8333 124.5,41.5C 123.596,42.209 123.263,43.209 123.5,44.5C 122.833,44.5 122.5,44.8333 122.5,45.5C 121.508,45.6716 120.842,45.3382 120.5,44.5C 121.833,44.1667 121.833,43.8333 120.5,43.5C 120.918,42.7784 121.584,42.2784 122.5,42C 121.906,41.5357 121.239,41.369 120.5,41.5C 120.5,40.8333 120.5,40.1667 120.5,39.5 Z"/></g>
<g><path style="opacity:0.405" fill="#c0c0c0" d="M 120.5,39.5 C 118.302,39.4088 117.969,40.0755 119.5,41.5C 118.561,42.3274 118.895,42.9941 120.5,43.5C 120.5,43.8333 120.5,44.1667 120.5,44.5C 118.11,44.3152 117.11,42.9818 117.5,40.5C 117.368,37.0185 118.368,36.6852 120.5,39.5 Z"/></g>
<g><path style="opacity:0.008" fill="#fefffe" d="M 129.5,37.5 C 128.833,36.1667 128.833,36.1667 129.5,37.5 Z"/></g>
<g><path style="opacity:0.02" fill="#fefffe" d="M 126.5,35.5 C 127.833,36.1667 127.833,36.1667 126.5,35.5 Z"/></g>
<g><path style="opacity:0.024" fill="#ededed" d="M 120.5,35.5 C 121.833,35.5 123.167,35.5 124.5,35.5C 124.5,36.1667 124.5,36.8333 124.5,37.5C 124.167,37.5 123.833,37.5 123.5,37.5C 122.5,36.8333 121.5,36.1667 120.5,35.5 Z"/></g>
<g><path style="opacity:0.027" fill="#fefffe" d="M 124.5,34.5 C 125.833,35.1667 125.833,35.1667 124.5,34.5 Z"/></g>
<g><path style="opacity:0.043" fill="#fefffe" d="M 120.5,33.5 C 121.833,34.1667 121.833,34.1667 120.5,33.5 Z"/></g>
<g><path style="opacity:0.051" fill="#f1f1f1" d="M 136.5,29.5 C 137.525,29.8966 137.692,30.5632 137,31.5C 136.536,30.9056 136.369,30.2389 136.5,29.5 Z"/></g>
<g><path style="opacity:0.02" fill="#e1e1e1" d="M 108.5,29.5 C 109.5,29.5 110.5,29.5 111.5,29.5C 111.5,30.1667 111.833,30.5 112.5,30.5C 112.5,30.8333 112.5,31.1667 112.5,31.5C 110.847,31.3404 109.514,30.6737 108.5,29.5 Z"/></g>
<g><path style="opacity:0.018" fill="#f9f9f9" d="M 109.5,27.5 C 110.833,27.5 112.167,27.5 113.5,27.5C 114.167,27.5 114.5,27.8333 114.5,28.5C 114.5,29.8333 114.5,31.1667 114.5,32.5C 113.508,32.6716 112.842,32.3382 112.5,31.5C 113.833,31.1667 113.833,30.8333 112.5,30.5C 111.833,30.5 111.5,30.1667 111.5,29.5C 110.833,28.8333 110.167,28.1667 109.5,27.5 Z"/></g>
<g><path style="opacity:1" fill="#a2a2a2" d="M 100.5,25.5 C 101.847,26.1712 103.014,26.1712 104,25.5C 104.342,27.6192 105.175,27.9526 106.5,26.5C 106.842,27.3382 107.508,27.6716 108.5,27.5C 108.5,28.1667 108.5,28.8333 108.5,29.5C 106.609,28.4639 104.776,28.4639 103,29.5C 102.25,28.8742 101.416,28.3742 100.5,28C 101.598,27.2303 101.598,26.397 100.5,25.5 Z"/></g>
<g><path style="opacity:0.065" fill="#efefef" d="M 137.5,26.5 C 137.631,27.2389 137.464,27.9056 137,28.5C 136.308,27.5632 136.475,26.8966 137.5,26.5 Z"/></g>
<g><path style="opacity:0.004" fill="#fefffe" d="M 106.5,25.5 C 107.833,26.1667 107.833,26.1667 106.5,25.5 Z"/></g>
<g><path style="opacity:0.016" fill="#fefffe" d="M 137.5,25.5 C 136.833,24.1667 136.833,24.1667 137.5,25.5 Z"/></g>
<g><path style="opacity:0.014" fill="#fefffe" d="M 113.5,26.5 C 112.475,26.1034 112.308,25.4368 113,24.5C 113.464,25.0944 113.631,25.7611 113.5,26.5 Z"/></g>
<g><path style="opacity:0.006" fill="#f3f3f3" d="M 96.5,23.5 C 98.3797,23.2291 99.713,23.8958 100.5,25.5C 98.847,25.3404 97.5137,24.6737 96.5,23.5 Z"/></g>
<g><path style="opacity:0.02" fill="#fefffe" d="M 145.5,46.5 C 146.251,45.4265 147.251,45.2599 148.5,46C 147.956,46.7172 147.289,47.2172 146.5,47.5C 145.833,47.5 145.5,47.1667 145.5,46.5 Z"/></g>
<g><path style="opacity:0.024" fill="#eeeeee" d="M 132.5,46.5 C 132.5,46.1667 132.5,45.8333 132.5,45.5C 134.38,45.2291 135.713,45.8958 136.5,47.5C 135.833,47.5 135.167,47.5 134.5,47.5C 134.158,46.6618 133.492,46.3284 132.5,46.5 Z"/></g>
<g><path style="opacity:0.018" fill="#f7f7f7" d="M 128.5,43.5 C 129.167,43.5 129.833,43.5 130.5,43.5C 131.167,44.1667 131.833,44.8333 132.5,45.5C 131.167,45.8333 131.167,46.1667 132.5,46.5C 132.842,47.3382 133.508,47.6716 134.5,47.5C 135.167,48.8333 135.833,48.8333 136.5,47.5C 137.693,47.9704 138.36,48.9704 138.5,50.5C 138.333,51.5 138.167,52.5 138,53.5C 136.348,52.6006 134.848,51.6006 133.5,50.5C 132.508,50.6716 131.842,50.3382 131.5,49.5C 131.938,49.5654 132.272,49.3988 132.5,49C 131.178,46.8324 130.511,46.9991 130.5,49.5C 128.847,49.3404 127.514,48.6737 126.5,47.5C 127.791,47.7373 128.791,47.404 129.5,46.5C 130.833,46.1667 130.833,45.8333 129.5,45.5C 129.167,44.8333 128.833,44.1667 128.5,43.5 Z M 131.5,49.5 C 131.167,49.5 130.833,49.5 130.5,49.5C 130.511,46.9991 131.178,46.8324 132.5,49C 132.272,49.3988 131.938,49.5654 131.5,49.5 Z"/></g>
<g><path style="opacity:0.015" fill="#f5f5f5" d="M 120.5,48.5 C 122.153,48.6596 123.486,49.3263 124.5,50.5C 122.858,52.0808 120.858,52.7475 118.5,52.5C 118.5,52.1667 118.5,51.8333 118.5,51.5C 119.833,51.1667 119.833,50.8333 118.5,50.5C 118.5,50.1667 118.5,49.8333 118.5,49.5C 119.492,49.6716 120.158,49.3382 120.5,48.5 Z"/></g>
<g><path style="opacity:0.396" fill="#d0d0d1" d="M 52.5,49.5 C 52.0269,50.9063 51.0269,51.573 49.5,51.5C 49.9731,50.0937 50.9731,49.427 52.5,49.5 Z"/></g>
<g><path style="opacity:0.601" fill="#8d8d8d" d="M 114.5,36.5 C 115.147,37.2739 115.48,38.2739 115.5,39.5C 113.809,41.5957 113.642,43.5957 115,45.5C 115.5,61.1631 115.667,76.8298 115.5,92.5C 115.167,92.5 114.833,92.5 114.5,92.5C 114.5,90.1667 114.5,87.8333 114.5,85.5C 114.5,84.8333 114.5,84.1667 114.5,83.5C 114.5,81.1667 114.5,78.8333 114.5,76.5C 114.666,66.8276 114.5,57.1609 114,47.5C 112.75,45.8065 111.25,44.4732 109.5,43.5C 111.842,42.7893 112.175,41.456 110.5,39.5C 111.5,39.5 112.5,39.5 113.5,39.5C 113.833,40.8333 114.167,40.8333 114.5,39.5C 114.5,38.5 114.5,37.5 114.5,36.5 Z"/></g>
<g><path style="opacity:0.024" fill="#fefffe" d="M 46.5,52.5 C 45.8333,51.1667 45.8333,51.1667 46.5,52.5 Z"/></g>
<g><path style="opacity:0.415" fill="#adadad" d="M 120.5,48.5 C 119.508,48.3284 118.842,48.6618 118.5,49.5C 118.5,49.8333 118.5,50.1667 118.5,50.5C 118.5,50.8333 118.5,51.1667 118.5,51.5C 118.5,51.8333 118.5,52.1667 118.5,52.5C 118.5,65.5 118.5,78.5 118.5,91.5C 118.5,91.8333 118.5,92.1667 118.5,92.5C 118.167,92.5 117.833,92.5 117.5,92.5C 117.5,77.5 117.5,62.5 117.5,47.5C 118.791,47.2627 119.791,47.596 120.5,48.5 Z"/></g>
<g><path style="opacity:0.025" fill="#fefffe" d="M 158.5,52.5 C 158.897,51.475 159.563,51.3083 160.5,52C 159.906,52.4643 159.239,52.631 158.5,52.5 Z"/></g>
<g><path style="opacity:0.012" fill="#fefffe" d="M 43.5,52.5 C 44.8333,53.1667 44.8333,53.1667 43.5,52.5 Z"/></g>
<g><path style="opacity:0.02" fill="#ececec" d="M 126.5,51.5 C 128.153,51.6596 129.486,52.3263 130.5,53.5C 128.41,54.7908 127.076,54.1242 126.5,51.5 Z"/></g>
<g><path style="opacity:0.017" fill="#f3f3f3" d="M 147.5,52.5 C 143.5,52.8333 143.5,53.1667 147.5,53.5C 147.842,54.3382 148.508,54.6716 149.5,54.5C 150.167,55.8333 150.833,55.8333 151.5,54.5C 153.819,54.9925 155.819,55.9925 157.5,57.5C 154.833,57.8333 154.833,58.1667 157.5,58.5C 158.167,59.8333 158.833,59.8333 159.5,58.5C 161.153,58.6596 162.486,59.3263 163.5,60.5C 164.492,60.3284 165.158,60.6618 165.5,61.5C 166.492,61.3284 167.158,61.6618 167.5,62.5C 170.912,63.0749 173.912,64.4082 176.5,66.5C 177.492,66.3284 178.158,66.6618 178.5,67.5C 180.819,67.9925 182.819,68.9925 184.5,70.5C 186.153,70.6596 187.486,71.3263 188.5,72.5C 187.167,72.8333 187.167,73.1667 188.5,73.5C 189.5,74.8333 190.5,74.8333 191.5,73.5C 192.167,73.5 192.5,73.1667 192.5,72.5C 192.833,72.5 193.167,72.5 193.5,72.5C 193.586,73.4959 193.252,74.3292 192.5,75C 189.964,75.1862 187.631,75.6862 185.5,76.5C 182.304,75.0713 179.304,73.4046 176.5,71.5C 170.849,69.3412 165.516,66.6745 160.5,63.5C 157.759,63.2927 155.426,62.2927 153.5,60.5C 156.167,60.1667 156.167,59.8333 153.5,59.5C 152.833,58.1667 152.167,58.1667 151.5,59.5C 149.847,59.3404 148.514,58.6737 147.5,57.5C 146.508,57.6716 145.842,57.3382 145.5,56.5C 144.417,56.4606 143.417,56.1272 142.5,55.5C 140.772,48.6552 142.439,47.6552 147.5,52.5 Z"/></g>
<g><path style="opacity:0.012" fill="#fefffe" d="M 164.5,54.5 C 165.833,55.1667 165.833,55.1667 164.5,54.5 Z"/></g>
<g><path style="opacity:0.238" fill="#d3d3d3" d="M 49.5,51.5 C 48.7101,52.7942 47.7101,53.9609 46.5,55C 60.6728,55.8273 74.6728,55.6607 88.5,54.5C 89.7152,55.779 89.3818,56.779 87.5,57.5C 74.5726,56.2604 61.7393,56.2604 49,57.5C 47.4905,56.9103 45.9905,56.2436 44.5,55.5C 45.1925,54.4822 45.8592,53.4822 46.5,52.5C 47.391,51.8902 48.391,51.5569 49.5,51.5 Z"/></g>
<g><path style="opacity:0.047" fill="#e9eae9" d="M 166.5,55.5 C 167.833,56.1667 167.833,56.1667 166.5,55.5 Z"/></g>
<g><path style="opacity:0.004" fill="#fefffe" d="M 172.5,57.5 C 173.833,58.1667 173.833,58.1667 172.5,57.5 Z"/></g>
<g><path style="opacity:0.017" fill="#fefffe" d="M 49.5,60.5 C 48.1667,60.5 46.8333,60.5 45.5,60.5C 45.1667,60.5 44.8333,60.5 44.5,60.5C 44.0825,59.7784 43.4158,59.2784 42.5,59C 43,58.8333 43.5,58.6667 44,58.5C 45.15,59.4239 46.15,59.4239 47,58.5C 47.9947,59.0659 48.828,59.7326 49.5,60.5 Z"/></g>
<g><path style="opacity:0.016" fill="#ececf0" d="M 170.5,59.5 C 169.508,59.6716 168.842,59.3382 168.5,58.5C 170.838,56.9893 171.504,57.3227 170.5,59.5 Z"/></g>
<g><path style="opacity:0.004" fill="#fefffe" d="M 175.5,59.5 C 174.833,58.1667 174.833,58.1667 175.5,59.5 Z"/></g>
<g><path style="opacity:0.004" fill="#f6f6f6" d="M 175.5,59.5 C 176.492,59.3284 177.158,59.6618 177.5,60.5C 176.508,60.6716 175.842,60.3382 175.5,59.5 Z"/></g>
<g><path style="opacity:1" fill="#545454" d="M 82.5,60.5 C 84.1667,60.5 85.8333,60.5 87.5,60.5C 87.2322,62.099 87.5655,63.4324 88.5,64.5C 88.5,64.8333 88.5,65.1667 88.5,65.5C 88.5,68.8333 88.5,72.1667 88.5,75.5C 88.5,75.8333 88.5,76.1667 88.5,76.5C 88.5,82.1667 88.5,87.8333 88.5,93.5C 77.3409,94.6593 66.0076,94.8259 54.5,94C 53.27,82.8869 53.27,71.7203 54.5,60.5C 63.8333,60.5 73.1667,60.5 82.5,60.5 Z M 79.5,68.5 C 79.5,68.1667 79.5,67.8333 79.5,67.5C 83.0379,67.2153 84.8712,68.882 85,72.5C 85.1792,70.5758 85.3459,68.9091 85.5,67.5C 86.4656,69.396 86.7989,71.396 86.5,73.5C 84.8008,73.6602 83.1341,73.4935 81.5,73C 83.9856,72.2949 83.9856,71.4616 81.5,70.5C 82.6602,68.7973 81.9935,68.1307 79.5,68.5 Z M 79.5,69.5 C 80.1667,69.8333 80.8333,70.1667 81.5,70.5C 81.0679,71.7095 80.4013,72.7095 79.5,73.5C 79.5,72.1667 79.5,70.8333 79.5,69.5 Z M 79.5,77.5 C 80.2216,77.9175 80.7216,78.5842 81,79.5C 81.6667,76.8333 82.3333,76.8333 83,79.5C 83.3826,78.944 83.8826,78.6107 84.5,78.5C 84.56,77.9569 84.8933,77.6236 85.5,77.5C 86.4287,78.6888 86.762,80.0222 86.5,81.5C 82.551,81.6932 82.551,82.1932 86.5,83C 84.1902,83.4966 81.8568,83.6633 79.5,83.5C 79.5,81.5 79.5,79.5 79.5,77.5 Z"/></g>
<g><path style="opacity:0.013" fill="#fefefe" d="M 136.5,56.5 C 137.167,56.5 137.833,56.5 138.5,56.5C 138.5,68.5 138.5,80.5 138.5,92.5C 131.833,92.5 125.167,92.5 118.5,92.5C 118.5,92.1667 118.5,91.8333 118.5,91.5C 119.222,91.0825 119.722,90.4158 120,89.5C 122.383,90.7657 125.05,91.4324 128,91.5C 130.5,91.1667 133,90.8333 135.5,90.5C 137.13,78.7117 137.463,67.3784 136.5,56.5 Z"/></g>
<g><path style="opacity:0.012" fill="#fefffe" d="M 180.5,61.5 C 181.833,62.1667 181.833,62.1667 180.5,61.5 Z"/></g>
<g><path style="opacity:0.55" fill="#b6b6b6" d="M 44.5,60.5 C 44.8333,60.5 45.1667,60.5 45.5,60.5C 45.5,75.1667 45.5,89.8333 45.5,104.5C 59.8333,104.5 74.1667,104.5 88.5,104.5C 73.5979,105.823 58.5979,105.823 43.5,104.5C 44.026,96.6919 44.3594,88.6919 44.5,80.5C 44.4755,74.423 43.8088,68.5896 42.5,63C 45.1667,62.3333 45.1667,61.6667 42.5,61C 43.0944,60.5357 43.7611,60.369 44.5,60.5 Z"/></g>
<g><path style="opacity:0.059" fill="#edeeed" d="M 145.5,62.5 C 146.833,63.1667 146.833,63.1667 145.5,62.5 Z"/></g>
<g><path style="opacity:0.02" fill="#e9e9e9" d="M 147.5,61.5 C 149.027,61.427 150.027,62.0937 150.5,63.5C 148.973,63.573 147.973,62.9063 147.5,61.5 Z"/></g>
<g><path style="opacity:0.714" fill="#c5c5c5" d="M 87.5,57.5 C 86.3424,58.9498 86.8424,59.9498 89,60.5C 89.6172,61.4491 89.4506,62.2825 88.5,63C 91.0972,63.7792 91.0972,64.2792 88.5,64.5C 87.5655,63.4324 87.2322,62.099 87.5,60.5C 85.8333,60.5 84.1667,60.5 82.5,60.5C 83.2625,59.7321 84.2625,59.2321 85.5,59C 84.8333,58.6667 84.1667,58.3333 83.5,58C 84.7932,57.51 86.1266,57.3433 87.5,57.5 Z"/></g>
<g><path style="opacity:0.024" fill="#ececec" d="M 151.5,63.5 C 152.492,63.3284 153.158,63.6618 153.5,64.5C 151.162,66.0107 150.496,65.6773 151.5,63.5 Z"/></g>
<g><path style="opacity:0.018" fill="#e9e9e9" d="M 184.5,64.5 C 183.508,64.3284 182.842,64.6618 182.5,65.5C 181.508,65.6716 180.842,65.3382 180.5,64.5C 181.961,63.3143 183.295,63.3143 184.5,64.5 Z"/></g>
<g><path style="opacity:0.012" fill="#fefffe" d="M 88.5,65.5 C 89.2161,67.5563 89.8828,69.723 90.5,72C 89.9152,73.3024 89.2485,74.469 88.5,75.5C 88.5,72.1667 88.5,68.8333 88.5,65.5 Z"/></g>
<g><path style="opacity:0.017" fill="#e8e8e8" d="M 153.5,64.5 C 155.153,64.6596 156.486,65.3263 157.5,66.5C 156.25,66.5774 155.417,67.244 155,68.5C 154.59,67.0993 154.09,65.766 153.5,64.5 Z"/></g>
<g><path style="opacity:1" fill="#636363" d="M 164.5,55.5 C 164.842,56.3382 165.508,56.6716 166.5,56.5C 167.167,57.1667 167.833,57.8333 168.5,58.5C 168.842,59.3382 169.508,59.6716 170.5,59.5C 172.84,60.086 175.007,61.086 177,62.5C 177.464,61.9056 177.631,61.2389 177.5,60.5C 178.268,61.2625 178.768,62.2625 179,63.5C 179.383,62.944 179.883,62.6107 180.5,62.5C 180.5,63.1667 180.5,63.8333 180.5,64.5C 180.842,65.3382 181.508,65.6716 182.5,65.5C 183.167,65.5 183.833,65.5 184.5,65.5C 184.5,66.1667 184.833,66.5 185.5,66.5C 185.5,67.1667 185.833,67.5 186.5,67.5C 187.967,64.7417 188.633,65.075 188.5,68.5C 190.199,68.5271 191.533,69.1938 192.5,70.5C 192.5,71.1667 192.5,71.8333 192.5,72.5C 191.833,72.5 191.5,72.8333 191.5,73.5C 190.5,73.5 189.5,73.5 188.5,73.5C 188.5,73.1667 188.5,72.8333 188.5,72.5C 187.486,71.3263 186.153,70.6596 184.5,70.5C 182.819,68.9925 180.819,67.9925 178.5,67.5C 178.158,66.6618 177.492,66.3284 176.5,66.5C 173.912,64.4082 170.912,63.0749 167.5,62.5C 167.158,61.6618 166.492,61.3284 165.5,61.5C 165.158,60.6618 164.492,60.3284 163.5,60.5C 162.486,59.3263 161.153,58.6596 159.5,58.5C 158.833,58.5 158.167,58.5 157.5,58.5C 157.5,58.1667 157.5,57.8333 157.5,57.5C 155.819,55.9925 153.819,54.9925 151.5,54.5C 150.833,54.5 150.167,54.5 149.5,54.5C 149.158,53.6618 148.492,53.3284 147.5,53.5C 147.5,53.1667 147.5,52.8333 147.5,52.5C 149.048,52.1788 149.715,51.1788 149.5,49.5C 150.222,49.0825 150.722,48.4158 151,47.5C 151.065,49.8833 151.898,50.55 153.5,49.5C 156.23,52.1612 159.897,54.1612 164.5,55.5 Z"/></g>
<g><path style="opacity:0.082" fill="#f0f0f0" d="M 184.5,65.5 C 184.5,65.1667 184.5,64.8333 184.5,64.5C 186.048,64.8212 186.715,65.8212 186.5,67.5C 185.833,67.5 185.5,67.1667 185.5,66.5C 184.833,66.5 184.5,66.1667 184.5,65.5 Z"/></g>
<g><path style="opacity:0.035" fill="#fefffe" d="M 189.5,66.5 C 190.833,67.1667 190.833,67.1667 189.5,66.5 Z"/></g>
<g><path style="opacity:0.014" fill="#fefffe" d="M 79.5,69.5 C 79.5,69.1667 79.5,68.8333 79.5,68.5C 81.9935,68.1307 82.6602,68.7973 81.5,70.5C 80.8333,70.1667 80.1667,69.8333 79.5,69.5 Z"/></g>
<g><path style="opacity:0.359" fill="#dadada" d="M 79.5,67.5 C 81.9479,66.5269 84.6146,66.1936 87.5,66.5C 87.5,69.1667 87.5,71.8333 87.5,74.5C 84.6146,74.8064 81.9479,74.4731 79.5,73.5C 80.4013,72.7095 81.0679,71.7095 81.5,70.5C 83.9856,71.4616 83.9856,72.2949 81.5,73C 83.1341,73.4935 84.8008,73.6602 86.5,73.5C 86.7989,71.396 86.4656,69.396 85.5,67.5C 85.3459,68.9091 85.1792,70.5758 85,72.5C 84.8712,68.882 83.0379,67.2153 79.5,67.5 Z"/></g>
<g><path style="opacity:0.008" fill="#f9f9f9" d="M 156.5,69.5 C 157.251,68.4265 158.251,68.2599 159.5,69C 158.552,69.4828 157.552,69.6495 156.5,69.5 Z"/></g>
<g><path style="opacity:0.018" fill="#f1f1f2" d="M 160.5,67.5 C 161.71,67.9321 162.71,68.5987 163.5,69.5C 162.784,69.7831 161.951,70.1164 161,70.5C 160.517,69.552 160.351,68.552 160.5,67.5 Z"/></g>
<g><path style="opacity:0.018" fill="#fefffe" d="M 192.5,70.5 C 192.369,69.7611 192.536,69.0944 193,68.5C 193.692,69.4368 193.525,70.1034 192.5,70.5 Z"/></g>
<g><path style="opacity:0.022" fill="#f0f0f1" d="M 166.5,70.5 C 167.71,70.9321 168.71,71.5987 169.5,72.5C 167.402,73.9143 166.402,73.2476 166.5,70.5 Z"/></g>
<g><path style="opacity:0.004" fill="#fefffe" d="M 193.5,71.5 C 194.833,72.1667 194.833,72.1667 193.5,71.5 Z"/></g>
<g><path style="opacity:0.006" fill="#f9f9f9" d="M 170.5,73.5 C 171.167,73.5 171.5,73.8333 171.5,74.5C 171.44,75.0431 171.107,75.3764 170.5,75.5C 169.227,74.7435 169.227,74.0768 170.5,73.5 Z"/></g>
<g><path style="opacity:0.03" fill="#fbfbfb" d="M 173.5,74.5 C 174.492,74.3284 175.158,74.6618 175.5,75.5C 175.5,76.1667 175.5,76.8333 175.5,77.5C 174.094,77.0269 173.427,76.0269 173.5,74.5 Z"/></g>
<g><path style="opacity:0.013" fill="#fdfdfd" d="M 88.5,76.5 C 89.2674,77.172 89.9341,78.0053 90.5,79C 89.374,82.7436 89.2073,86.577 90,90.5C 91.1068,89.2881 91.6068,89.6214 91.5,91.5C 90.2223,91.7822 89.2223,92.4489 88.5,93.5C 88.5,87.8333 88.5,82.1667 88.5,76.5 Z"/></g>
<g><path style="opacity:0.007" fill="#fefeff" d="M 114.5,76.5 C 114.5,78.8333 114.5,81.1667 114.5,83.5C 113.167,84.1667 113.167,84.8333 114.5,85.5C 114.5,87.8333 114.5,90.1667 114.5,92.5C 106.833,92.5 99.1667,92.5 91.5,92.5C 91.5,92.1667 91.5,91.8333 91.5,91.5C 98.175,91.6663 104.842,91.4996 111.5,91C 112.301,86.0341 113.301,81.2007 114.5,76.5 Z"/></g>
<g><path style="opacity:0.02" fill="#fefffe" d="M 188.5,76.5 C 189.833,77.1667 189.833,77.1667 188.5,76.5 Z"/></g>
<g><path style="opacity:0.055" fill="#f2f2f2" d="M 175.5,77.5 C 176.492,77.3284 177.158,77.6618 177.5,78.5C 176.508,78.6716 175.842,78.3382 175.5,77.5 Z"/></g>
<g><path style="opacity:0.031" fill="#e9e9e9" d="M 180.5,77.5 C 182.153,77.6596 183.486,78.3263 184.5,79.5C 182.801,79.6602 181.134,79.4935 179.5,79C 180.056,78.6174 180.389,78.1174 180.5,77.5 Z"/></g>
<g><path style="opacity:0.008" fill="#fefffe" d="M 177.5,78.5 C 178.833,79.1667 178.833,79.1667 177.5,78.5 Z"/></g>
<g><path style="opacity:0.343" fill="#dedede" d="M 79.5,77.5 C 81.9479,76.5269 84.6146,76.1936 87.5,76.5C 87.5,79.1667 87.5,81.8333 87.5,84.5C 84.6146,84.8064 81.9479,84.4731 79.5,83.5C 81.8568,83.6633 84.1902,83.4966 86.5,83C 82.551,82.1932 82.551,81.6932 86.5,81.5C 86.762,80.0222 86.4287,78.6888 85.5,77.5C 84.8933,77.6236 84.56,77.9569 84.5,78.5C 83.8826,78.6107 83.3826,78.944 83,79.5C 82.3333,76.8333 81.6667,76.8333 81,79.5C 80.7216,78.5842 80.2216,77.9175 79.5,77.5 Z"/></g>
<g><path style="opacity:0.055" fill="#ecedec" d="M 184.5,80.5 C 183.833,81.1667 183.833,81.1667 184.5,80.5 Z"/></g>
<g><path style="opacity:0.011" fill="#e9e9e9" d="M 187.5,77.5 C 187.833,77.5 188.167,77.5 188.5,77.5C 189.833,78.5 189.833,79.5 188.5,80.5C 187.849,81.0906 187.182,81.7573 186.5,82.5C 185.818,81.7573 185.151,81.0906 184.5,80.5C 184.5,80.1667 184.5,79.8333 184.5,79.5C 186.179,79.7148 187.179,79.0481 187.5,77.5 Z"/></g>
<g><path style="opacity:0.027" fill="#fefffe" d="M 188.5,80.5 C 189.525,80.8966 189.692,81.5632 189,82.5C 188.536,81.9056 188.369,81.2389 188.5,80.5 Z"/></g>
<g><path style="opacity:0.006" fill="#fefffe" d="M 198.5,90.5 C 198.897,89.475 199.563,89.3083 200.5,90C 199.906,90.4643 199.239,90.631 198.5,90.5 Z"/></g>
<g><path style="opacity:0.007" fill="#fafafb" d="M 144.5,60.5 C 144.539,61.7562 144.039,62.7562 143,63.5C 142.5,72.4938 142.334,81.4938 142.5,90.5C 160.629,91.1538 178.796,91.1538 197,90.5C 198.622,91.0989 200.122,91.7656 201.5,92.5C 181.5,92.5 161.5,92.5 141.5,92.5C 141.5,81.8333 141.5,71.1667 141.5,60.5C 141.957,58.4433 142.957,58.4433 144.5,60.5 Z"/></g>
<g><path style="opacity:0.043" fill="#efefef" d="M 203.5,92.5 C 203.897,91.475 204.563,91.3083 205.5,92C 204.906,92.4643 204.239,92.631 203.5,92.5 Z"/></g>
<g><path style="opacity:0.774" fill="#666667" d="M 91.5,92.5 C 99.1667,92.5 106.833,92.5 114.5,92.5C 114.833,92.5 115.167,92.5 115.5,92.5C 116.167,92.5 116.833,92.5 117.5,92.5C 117.833,92.5 118.167,92.5 118.5,92.5C 125.167,92.5 131.833,92.5 138.5,92.5C 131.352,93.4916 124.019,93.825 116.5,93.5C 116.198,96.3725 115.531,99.0392 114.5,101.5C 114.5,101.167 114.5,100.833 114.5,100.5C 114.5,100.167 114.5,99.8333 114.5,99.5C 114.5,98.8333 114.5,98.1667 114.5,97.5C 114.5,97.1667 114.5,96.8333 114.5,96.5C 114.5,96.1667 114.5,95.8333 114.5,95.5C 111.232,94.1778 107.565,93.5112 103.5,93.5C 99.4348,93.5112 95.7681,94.1778 92.5,95.5C 92.1667,95.5 91.8333,95.5 91.5,95.5C 90.8843,94.2022 90.8843,93.2022 91.5,92.5 Z"/></g>
<g><path style="opacity:0.768" fill="#6f6f6f" d="M 141.5,92.5 C 161.5,92.5 181.5,92.5 201.5,92.5C 202.167,92.5 202.833,92.5 203.5,92.5C 203.918,93.2216 204.584,93.7216 205.5,94C 204.584,94.2784 203.918,94.7784 203.5,95.5C 203.167,95.5 202.833,95.5 202.5,95.5C 182.354,93.8369 162.021,92.8369 141.5,92.5 Z"/></g>
<g><path style="opacity:0.991" fill="#3e3e3e" d="M 114.5,95.5 C 107.167,95.5 99.8333,95.5 92.5,95.5C 95.7681,94.1778 99.4348,93.5112 103.5,93.5C 107.565,93.5112 111.232,94.1778 114.5,95.5 Z"/></g>
<g><path style="opacity:0.208" fill="#d5d5d6" d="M 202.5,95.5 C 202.833,95.5 203.167,95.5 203.5,95.5C 202.828,96.2674 201.995,96.9341 201,97.5C 181.402,96.169 161.902,96.169 142.5,97.5C 142.5,98.1667 142.167,98.5 141.5,98.5C 141.5,97.5 141.5,96.5 141.5,95.5C 161.833,95.5 182.167,95.5 202.5,95.5 Z"/></g>
<g><path style="opacity:0.961" fill="#474748" d="M 45.5,60.5 C 46.8333,60.5 48.1667,60.5 49.5,60.5C 49.5,73.5 49.5,86.5 49.5,99.5C 62.5,99.5 75.5,99.5 88.5,99.5C 88.5,100.5 88.5,101.5 88.5,102.5C 88.5,103.167 88.5,103.833 88.5,104.5C 74.1667,104.5 59.8333,104.5 45.5,104.5C 45.5,89.8333 45.5,75.1667 45.5,60.5 Z"/></g>
<g><path style="opacity:0.014" fill="#f2f2f2" d="M 91.5,95.5 C 91.8333,95.5 92.1667,95.5 92.5,95.5C 99.8333,95.5 107.167,95.5 114.5,95.5C 114.5,95.8333 114.5,96.1667 114.5,96.5C 113.167,96.8333 113.167,97.1667 114.5,97.5C 114.5,98.1667 114.5,98.8333 114.5,99.5C 113.167,99.8333 113.167,100.167 114.5,100.5C 114.5,100.833 114.5,101.167 114.5,101.5C 106.833,101.5 99.1667,101.5 91.5,101.5C 97.9874,100.672 104.654,100.172 111.5,100C 111.167,99 110.833,98 110.5,97C 103.977,96.3042 97.8103,96.4708 92,97.5C 90.6197,96.7445 90.453,96.0778 91.5,95.5 Z"/></g>
<g><path style="opacity:0.025" fill="#fefefe" d="M 142.5,97.5 C 144.3,98.4734 146.134,99.4734 148,100.5C 161.769,99.2903 175.603,99.2903 189.5,100.5C 192.906,100.704 196.072,100.038 199,98.5C 203.707,99.7675 208.54,100.434 213.5,100.5C 218.861,99.372 223.861,99.372 228.5,100.5C 227.508,100.328 226.842,100.662 226.5,101.5C 198.167,101.5 169.833,101.5 141.5,101.5C 141.5,100.5 141.5,99.5 141.5,98.5C 142.167,98.5 142.5,98.1667 142.5,97.5 Z"/></g>
<g><path style="opacity:0.074" fill="#e8e8ea" d="M 49.5,60.5 C 50.2389,60.369 50.9056,60.5357 51.5,61C 50.5309,73.4628 50.1975,85.7961 50.5,98C 63.1846,98.0887 75.8513,98.5887 88.5,99.5C 75.5,99.5 62.5,99.5 49.5,99.5C 49.5,86.5 49.5,73.5 49.5,60.5 Z"/></g>
<g><path style="opacity:0.964" fill="#454546" d="M 138.5,56.5 C 139.239,56.369 139.906,56.5357 140.5,57C 139.2,58.5788 139.534,59.7455 141.5,60.5C 141.5,71.1667 141.5,81.8333 141.5,92.5C 162.021,92.8369 182.354,93.8369 202.5,95.5C 182.167,95.5 161.833,95.5 141.5,95.5C 141.5,96.5 141.5,97.5 141.5,98.5C 141.5,99.5 141.5,100.5 141.5,101.5C 169.833,101.5 198.167,101.5 226.5,101.5C 226.5,102.5 226.5,103.5 226.5,104.5C 181.5,104.5 136.5,104.5 91.5,104.5C 91.5,104.167 91.5,103.833 91.5,103.5C 91.5,102.833 91.5,102.167 91.5,101.5C 99.1667,101.5 106.833,101.5 114.5,101.5C 115.531,99.0392 116.198,96.3725 116.5,93.5C 124.019,93.825 131.352,93.4916 138.5,92.5C 138.5,80.5 138.5,68.5 138.5,56.5 Z M 118.5,96.5 C 124.206,96.1712 129.872,96.5046 135.5,97.5C 134.359,98.4255 134.359,99.2588 135.5,100C 130.845,100.499 126.179,100.666 121.5,100.5C 121.719,99.325 121.386,98.325 120.5,97.5C 120.002,98.6034 119.669,99.6034 119.5,100.5C 118.571,99.3112 118.238,97.9778 118.5,96.5 Z"/></g>
<g><path style="opacity:0.016" fill="#efeff0" d="M 117.5,95.5 C 124.5,95.5 131.5,95.5 138.5,95.5C 138.5,97.5 138.5,99.5 138.5,101.5C 131.5,101.5 124.5,101.5 117.5,101.5C 117.5,99.5 117.5,97.5 117.5,95.5 Z M 118.5,96.5 C 118.238,97.9778 118.571,99.3112 119.5,100.5C 119.669,99.6034 120.002,98.6034 120.5,97.5C 121.386,98.325 121.719,99.325 121.5,100.5C 126.179,100.666 130.845,100.499 135.5,100C 134.359,99.2588 134.359,98.4255 135.5,97.5C 129.872,96.5046 124.206,96.1712 118.5,96.5 Z"/></g>
<g><path style="opacity:0.035" fill="#fefffe" d="M 228.5,100.5 C 229.833,101.167 229.833,101.167 228.5,100.5 Z"/></g>
<g><path style="opacity:0.016" fill="#fbfbfb" d="M 91.5,101.5 C 91.5,102.167 91.5,102.833 91.5,103.5C 90.391,103.557 89.391,103.89 88.5,104.5C 88.5,103.833 88.5,103.167 88.5,102.5C 89.609,102.443 90.609,102.11 91.5,101.5 Z"/></g>
<g><path style="opacity:0.063" fill="#dddddd" d="M 226.5,101.5 C 228.985,102.74 228.985,103.74 226.5,104.5C 226.5,103.5 226.5,102.5 226.5,101.5 Z"/></g>
<g><path style="opacity:0.004" fill="#fefffe" d="M 43.5,104.5 C 42.8333,105.167 42.8333,105.167 43.5,104.5 Z"/></g>
<g><path style="opacity:0.095" fill="#efefef" d="M 91.5,105.5 C 91.5,105.167 91.5,104.833 91.5,104.5C 136.5,104.5 181.5,104.5 226.5,104.5C 226.5,104.833 226.5,105.167 226.5,105.5C 181.518,106.122 136.518,106.122 91.5,105.5 Z"/></g>
<g><path style="opacity:0.012" fill="#fefffe" d="M 91.5,105.5 C 90.8333,106.167 90.8333,106.167 91.5,105.5 Z"/></g>
<g><path style="opacity:0.035" fill="#fefffe" d="M 226.5,105.5 C 227.833,106.167 227.833,106.167 226.5,105.5 Z"/></g>
<g><path style="opacity:0.02" fill="#fefffe" d="M 14.5,114.5 C 13.8333,113.167 13.8333,113.167 14.5,114.5 Z"/></g>
<g><path style="opacity:0.016" fill="#fefffe" d="M 30.5,113.5 C 31.8333,114.167 31.8333,114.167 30.5,113.5 Z"/></g>
<g><path style="opacity:0.013" fill="#e6e5e5" d="M 104.5,116.5 C 98.5,116.5 92.5,116.5 86.5,116.5C 86.5,117.833 86.5,119.167 86.5,120.5C 88.8333,120.5 91.1667,120.5 93.5,120.5C 93.5,126.5 93.5,132.5 93.5,138.5C 93.5,138.833 93.5,139.167 93.5,139.5C 92.7412,134.302 92.0746,128.969 91.5,123.5C 89.9465,121.981 87.7798,120.981 85,120.5C 84.6174,121.056 84.1174,121.389 83.5,121.5C 83.634,119.708 83.3007,118.042 82.5,116.5C 79.5,116.5 76.5,116.5 73.5,116.5C 73.5,115.833 73.1667,115.5 72.5,115.5C 74.0012,113.261 75.3345,113.261 76.5,115.5C 77.7202,114.289 78.8869,114.289 80,115.5C 81.7034,113.579 83.7034,113.579 86,115.5C 86.772,115.355 87.4387,115.022 88,114.5C 93.5997,115.146 99.0997,115.813 104.5,116.5 Z M 91.5,123.5 C 90.537,122.637 90.537,121.97 91.5,121.5C 92.7733,122.257 92.7733,122.923 91.5,123.5 Z"/></g>
<g><path style="opacity:0.004" fill="#fefffe" d="M 143.5,113.5 C 144.833,114.167 144.833,114.167 143.5,113.5 Z"/></g>
<g><path style="opacity:0.016" fill="#fefffe" d="M 157.5,113.5 C 158.833,114.167 158.833,114.167 157.5,113.5 Z"/></g>
<g><path style="opacity:0.009" fill="#fefffe" d="M 159.5,114.5 C 160.601,113.402 161.934,113.235 163.5,114C 162.207,114.49 160.873,114.657 159.5,114.5 Z"/></g>
<g><path style="opacity:0.013" fill="#f2f2f2" d="M 216.5,115.5 C 215.833,115.5 215.5,115.833 215.5,116.5C 212.5,116.5 209.5,116.5 206.5,116.5C 206.082,115.778 205.416,115.278 204.5,115C 208.696,113.02 212.696,113.187 216.5,115.5 Z"/></g>
<g><path style="opacity:0.031" fill="#dedfde" d="M 242.5,114.5 C 241.833,113.167 241.833,113.167 242.5,114.5 Z"/></g>
<g><path style="opacity:0.008" fill="#fefffe" d="M 243.5,113.5 C 244.833,114.167 244.833,114.167 243.5,113.5 Z"/></g>
<g><path style="opacity:0.024" fill="#fefffe" d="M 17.5,114.5 C 18.8333,115.167 18.8333,115.167 17.5,114.5 Z"/></g>
<g><path style="opacity:0.013" fill="#fbfbfb" d="M 65.5,115.5 C 65.5,115.833 65.5,116.167 65.5,116.5C 64.1667,116.5 62.8333,116.5 61.5,116.5C 61.0825,115.778 60.4158,115.278 59.5,115C 61.5454,114.51 63.5454,114.677 65.5,115.5 Z"/></g>
<g><path style="opacity:0.012" fill="#fefffe" d="M 65.5,114.5 C 66.8333,115.167 66.8333,115.167 65.5,114.5 Z"/></g>
<g><path style="opacity:0.015" fill="#ebebeb" d="M 119.5,115.5 C 118.833,115.5 118.5,115.833 118.5,116.5C 115.5,116.5 112.5,116.5 109.5,116.5C 107.692,117.918 107.025,119.918 107.5,122.5C 104.944,122.054 102.277,122.054 99.5,122.5C 99.1667,122.5 98.8333,122.5 98.5,122.5C 98.5,121.833 98.5,121.167 98.5,120.5C 100.5,120.5 102.5,120.5 104.5,120.5C 104.5,119.167 104.5,117.833 104.5,116.5C 105.458,116.047 106.292,115.381 107,114.5C 111.014,115.496 115.181,115.829 119.5,115.5 Z"/></g>
<g><path style="opacity:0.016" fill="#fefffe" d="M 133.5,114.5 C 134.833,115.167 134.833,115.167 133.5,114.5 Z"/></g>
<g><path style="opacity:0.019" fill="#fefffe" d="M 143.5,114.5 C 143.842,115.338 144.508,115.672 145.5,115.5C 145.5,115.833 145.5,116.167 145.5,116.5C 144.167,116.5 142.833,116.5 141.5,116.5C 140.34,114.797 141.007,114.131 143.5,114.5 Z"/></g>
<g><path style="opacity:0.016" fill="#fefffe" d="M 145.5,115.5 C 145.897,114.475 146.563,114.308 147.5,115C 146.906,115.464 146.239,115.631 145.5,115.5 Z"/></g>
<g><path style="opacity:0.012" fill="#fefffe" d="M 153.5,115.5 C 153.897,114.475 154.563,114.308 155.5,115C 154.906,115.464 154.239,115.631 153.5,115.5 Z"/></g>
<g><path style="opacity:0.012" fill="#f4f4f4" d="M 195.5,115.5 C 195.5,115.833 195.5,116.167 195.5,116.5C 194.167,116.5 192.833,116.5 191.5,116.5C 190.518,119.962 190.185,123.629 190.5,127.5C 189.167,129.833 189.167,132.167 190.5,134.5C 190.5,134.833 190.5,135.167 190.5,135.5C 188.577,131.971 187.911,127.971 188.5,123.5C 187.167,123.5 185.833,123.5 184.5,123.5C 183.892,127.472 183.392,131.472 183,135.5C 182.617,136.056 182.117,136.389 181.5,136.5C 181.5,131.167 181.5,125.833 181.5,120.5C 183.5,120.5 185.5,120.5 187.5,120.5C 187.5,119.167 187.5,117.833 187.5,116.5C 181.5,116.5 175.5,116.5 169.5,116.5C 169.5,117.833 169.5,119.167 169.5,120.5C 171.833,120.5 174.167,120.5 176.5,120.5C 176.5,126.5 176.5,132.5 176.5,138.5C 176.5,138.833 176.5,139.167 176.5,139.5C 175.761,139.631 175.094,139.464 174.5,139C 175.381,134.414 175.714,129.914 175.5,125.5C 173.68,124.117 171.68,123.117 169.5,122.5C 169.167,121.167 168.833,121.167 168.5,122.5C 166.544,124.175 165.211,123.842 164.5,121.5C 167.131,120.575 167.798,118.909 166.5,116.5C 166.167,115.167 165.833,115.167 165.5,116.5C 162.5,116.5 159.5,116.5 156.5,116.5C 159.509,115.717 162.676,115.05 166,114.5C 176.241,114.629 186.074,114.962 195.5,115.5 Z"/></g>
<g><path style="opacity:0.016" fill="#fefffe" d="M 195.5,115.5 C 195.897,114.475 196.563,114.308 197.5,115C 196.906,115.464 196.239,115.631 195.5,115.5 Z"/></g>
<g><path style="opacity:0.013" fill="#eeeeee" d="M 8.5,116.5 C 8.15829,117.338 7.49162,117.672 6.5,117.5C 5.4958,115.323 6.16247,114.989 8.5,116.5 Z"/></g>
<g><path style="opacity:0.373" fill="#d4d4d4" d="M 14.5,114.5 C 15.391,115.11 16.391,115.443 17.5,115.5C 17.5,115.833 17.5,116.167 17.5,116.5C 14.5,116.5 11.5,116.5 8.5,116.5C 8.47008,115.503 8.97008,114.836 10,114.5C 11.6773,115.608 13.1773,115.608 14.5,114.5 Z"/></g>
<g><path style="opacity:0.373" fill="#d4d4d4" d="M 36.5,116.5 C 33.0977,116.342 29.7644,116.676 26.5,117.5C 26.5,117.167 26.5,116.833 26.5,116.5C 27.7899,115.942 28.6232,114.942 29,113.5C 30.7931,115.806 32.9597,116.139 35.5,114.5C 36.2975,114.957 36.6309,115.624 36.5,116.5 Z"/></g>
<g><path style="opacity:0.012" fill="#fefffe" d="M 38.5,115.5 C 39.8333,116.167 39.8333,116.167 38.5,115.5 Z"/></g>
<g><path style="opacity:0.023" fill="#fefffe" d="M 53.5,118.5 C 52.5,118.167 51.8333,117.5 51.5,116.5C 53.2027,115.34 53.8693,116.007 53.5,118.5 Z"/></g>
<g><path style="opacity:0.013" fill="#f5f5f5" d="M 72.5,115.5 C 73.1667,115.5 73.5,115.833 73.5,116.5C 72.1667,117.833 70.8333,119.167 69.5,120.5C 69.5172,122.565 69.8505,124.565 70.5,126.5C 68.9988,129.174 67.9988,129.007 67.5,126C 68.3826,123.217 68.3826,120.384 67.5,117.5C 68.9393,115.685 70.606,115.018 72.5,115.5 Z"/></g>
<g><path style="opacity:0.013" fill="#efeeef" d="M 119.5,115.5 C 121.39,115.297 122.89,115.963 124,117.5C 124.667,116.833 125.333,116.167 126,115.5C 126.671,116.252 127.504,116.586 128.5,116.5C 128.334,122.842 128.5,129.175 129,135.5C 130.045,136.373 130.878,137.373 131.5,138.5C 128.423,139.351 125.423,140.351 122.5,141.5C 120.97,141.36 119.97,140.693 119.5,139.5C 121.604,139.799 123.604,139.466 125.5,138.5C 124.441,136.466 123.441,134.466 122.5,132.5C 121.522,132.189 120.855,131.522 120.5,130.5C 121.48,129.019 122.647,127.685 124,126.5C 124.494,124.866 124.66,123.199 124.5,121.5C 125.644,120.151 125.644,119.817 124.5,120.5C 122.809,119.136 121.142,117.803 119.5,116.5C 119.5,116.167 119.5,115.833 119.5,115.5 Z M 125.5,131.5 C 126.833,130.833 126.833,130.167 125.5,129.5C 126.684,125.738 127.35,125.738 127.5,129.5C 127.167,130.5 126.833,131.5 126.5,132.5C 125.893,132.376 125.56,132.043 125.5,131.5 Z"/></g>
<g><path style="opacity:0.014" fill="#e6e5e5" d="M 153.5,115.5 C 153.328,116.492 153.662,117.158 154.5,117.5C 153.833,118.833 152.833,119.833 151.5,120.5C 151.5,119.833 151.167,119.5 150.5,119.5C 151.512,118.128 152.512,116.795 153.5,115.5 Z"/></g>
<g><path style="opacity:0.011" fill="#eaeaea" d="M 216.5,115.5 C 218.179,115.285 219.179,115.952 219.5,117.5C 218.833,117.5 218.5,117.833 218.5,118.5C 216.973,118.573 215.973,117.906 215.5,116.5C 216.167,116.5 216.5,116.167 216.5,115.5 Z"/></g>
<g><path style="opacity:0.012" fill="#f6f5f5" d="M 238.5,115.5 C 238.5,116.167 238.833,116.5 239.5,116.5C 239.5,117.833 239.5,119.167 239.5,120.5C 238.167,121.5 238.167,122.5 239.5,123.5C 239.662,125.527 239.495,127.527 239,129.5C 237.004,126.014 234.837,122.681 232.5,119.5C 231.5,119.167 230.833,118.5 230.5,117.5C 231.833,117.167 231.833,116.833 230.5,116.5C 230.167,115.167 229.833,115.167 229.5,116.5C 228.167,116.5 226.833,116.5 225.5,116.5C 225.5,117.5 225.5,118.5 225.5,119.5C 224.167,122.5 224.167,125.5 225.5,128.5C 225.5,129.5 225.5,130.5 225.5,131.5C 224.167,131.833 224.167,132.167 225.5,132.5C 225.5,133.833 225.5,135.167 225.5,136.5C 225.167,136.5 224.833,136.5 224.5,136.5C 223.167,135.167 221.833,135.167 220.5,136.5C 220.167,136.5 219.833,136.5 219.5,136.5C 220.167,134.167 220.833,131.833 221.5,129.5C 222.833,129.167 222.833,128.833 221.5,128.5C 221.5,127.833 221.5,127.167 221.5,126.5C 222.833,126.167 222.833,125.833 221.5,125.5C 221.167,124.167 220.833,122.833 220.5,121.5C 219.599,120.71 218.932,119.71 218.5,118.5C 219.167,118.5 219.5,118.167 219.5,117.5C 220.794,118.29 221.961,119.29 223,120.5C 224.368,118.973 224.868,117.473 224.5,116C 229.385,113.305 233.052,114.472 235.5,119.5C 236.859,118.376 237.859,117.042 238.5,115.5 Z"/></g>
<g><path style="opacity:0.004" fill="#fefffe" d="M 41.5,117.5 C 40.8333,116.167 40.8333,116.167 41.5,117.5 Z"/></g>
<g><path style="opacity:0.014" fill="#e9e8e8" d="M 145.5,116.5 C 146.552,116.351 147.552,116.517 148.5,117C 149.833,117.667 149.833,118.333 148.5,119C 149.094,119.464 149.761,119.631 150.5,119.5C 151.167,119.5 151.5,119.833 151.5,120.5C 148.833,125.5 148.833,130.5 151.5,135.5C 149.611,136.38 147.611,136.38 145.5,135.5C 145.5,129.167 145.5,122.833 145.5,116.5 Z"/></g>
<g><path style="opacity:0.031" fill="#e8e8e8" d="M 206.5,116.5 C 205.71,117.401 204.71,118.068 203.5,118.5C 203.389,117.883 203.056,117.383 202.5,117C 203.793,116.51 205.127,116.343 206.5,116.5 Z"/></g>
<g><path style="opacity:0.012" fill="#dedede" d="M 38.5,117.5 C 39.1667,117.5 39.8333,117.5 40.5,117.5C 40.5,118.167 40.5,118.833 40.5,119.5C 39.5,119.167 38.8333,118.5 38.5,117.5 Z"/></g>
<g><path style="opacity:0.024" fill="#fefffe" d="M 41.5,117.5 C 42.8333,118.167 42.8333,118.167 41.5,117.5 Z"/></g>
<g><path style="opacity:1" fill="#302e2f" d="M 104.5,116.5 C 104.5,117.833 104.5,119.167 104.5,120.5C 102.5,120.5 100.5,120.5 98.5,120.5C 97.5104,126.31 97.1771,132.31 97.5,138.5C 96.1667,138.5 94.8333,138.5 93.5,138.5C 93.5,132.5 93.5,126.5 93.5,120.5C 91.1667,120.5 88.8333,120.5 86.5,120.5C 86.5,119.167 86.5,117.833 86.5,116.5C 92.5,116.5 98.5,116.5 104.5,116.5 Z"/></g>
<g><path style="opacity:1" fill="#2e2d2e" d="M 187.5,116.5 C 187.5,117.833 187.5,119.167 187.5,120.5C 185.5,120.5 183.5,120.5 181.5,120.5C 180.51,126.31 180.177,132.31 180.5,138.5C 179.167,138.5 177.833,138.5 176.5,138.5C 176.5,132.5 176.5,126.5 176.5,120.5C 174.167,120.5 171.833,120.5 169.5,120.5C 169.5,119.167 169.5,117.833 169.5,116.5C 175.5,116.5 181.5,116.5 187.5,116.5 Z"/></g>
<g><path style="opacity:0.012" fill="#f2f1f1" d="M 195.5,116.5 C 196.222,116.918 196.722,117.584 197,118.5C 197.333,118.167 197.667,117.833 198,117.5C 198.197,122.178 199.197,122.512 201,118.5C 201.383,119.056 201.883,119.389 202.5,119.5C 201.5,121.5 200.5,123.5 199.5,125.5C 198.167,125.833 198.167,126.167 199.5,126.5C 199.5,127.167 199.5,127.833 199.5,128.5C 198.167,129.167 198.167,129.833 199.5,130.5C 199.833,131.167 200.167,131.833 200.5,132.5C 199.596,133.209 199.263,134.209 199.5,135.5C 198.691,136.469 197.691,137.302 196.5,138C 198.932,139.087 198.598,139.587 195.5,139.5C 195.5,139.167 195.5,138.833 195.5,138.5C 195.5,131.167 195.5,123.833 195.5,116.5 Z"/></g>
<g><path style="opacity:0.015" fill="#f1f0f0" d="M 26.5,116.5 C 25.1667,116.833 25.1667,117.167 26.5,117.5C 21.6151,121.787 20.2818,127.12 22.5,133.5C 21.1667,133.833 21.1667,134.167 22.5,134.5C 26.8567,139.415 32.19,140.748 38.5,138.5C 38.5,138.833 38.5,139.167 38.5,139.5C 33.5364,142.058 28.5364,141.392 23.5,137.5C 22.8933,137.624 22.56,137.957 22.5,138.5C 21.5,137.167 20.5,137.167 19.5,138.5C 19.5,137.5 19.5,136.5 19.5,135.5C 20.7994,133.847 20.4661,132.347 18.5,131C 21.1667,130.333 21.1667,129.667 18.5,129C 20.1869,127.087 20.6869,124.92 20,122.5C 18.4345,121.939 17.1011,122.606 16,124.5C 12.9058,123.6 10.0724,123.6 7.5,124.5C 7.5,122.5 8.5,121.5 10.5,121.5C 12.5,120.167 14.5,120.167 16.5,121.5C 18.4456,120.965 19.4456,119.632 19.5,117.5C 20.8249,118.953 21.6582,118.619 22,116.5C 23.478,116.21 24.978,116.21 26.5,116.5 Z"/></g>
<g><path style="opacity:0.019" fill="#fdfdfd" d="M 238.5,115.5 C 239.833,115.167 241.167,114.833 242.5,114.5C 242.833,114.5 243.167,114.5 243.5,114.5C 244.429,115.315 245.429,116.148 246.5,117C 246.5,124.333 246.5,131.667 246.5,139C 245.934,139.995 245.267,140.828 244.5,141.5C 243.434,140.308 242.601,140.641 242,142.5C 241.722,141.584 241.222,140.918 240.5,140.5C 240.5,140.167 240.5,139.833 240.5,139.5C 241.833,139.5 243.167,139.5 244.5,139.5C 244.5,131.833 244.5,124.167 244.5,116.5C 242.833,116.5 241.167,116.5 239.5,116.5C 238.833,116.5 238.5,116.167 238.5,115.5 Z"/></g>
<g><path style="opacity:0.518" fill="#b4b3b3" d="M 133.5,115.5 C 133.918,116.222 134.584,116.722 135.5,117C 134.833,117.333 134.167,117.667 133.5,118C 133.61,121.221 134.277,124.554 135.5,128C 133.893,129.049 133.227,130.549 133.5,132.5C 132.512,127.36 132.179,122.026 132.5,116.5C 131.167,116.5 129.833,116.5 128.5,116.5C 129.469,115.691 130.302,114.691 131,113.5C 131.417,114.756 132.25,115.423 133.5,115.5 Z"/></g>
<g><path style="opacity:1" fill="#2c2a2b" d="M 191.5,116.5 C 192.833,116.5 194.167,116.5 195.5,116.5C 195.5,123.833 195.5,131.167 195.5,138.5C 194.167,138.5 192.833,138.5 191.5,138.5C 191.5,131.167 191.5,123.833 191.5,116.5 Z"/></g>
<g><path style="opacity:0.012" fill="#f7f6f7" d="M 4.5,119.5 C 2.35016,122.472 1.35016,125.805 1.5,129.5C 0.166667,129.833 0.166667,130.167 1.5,130.5C 2.40397,131.209 2.73731,132.209 2.5,133.5C 1.5,132.167 0.5,132.167 -0.5,133.5C -0.5,130.167 -0.5,126.833 -0.5,123.5C 0.374833,121.432 1.5415,119.432 3,117.5C 3.27842,118.416 3.77842,119.082 4.5,119.5 Z"/></g>
<g><path style="opacity:0.018" fill="#ece9eb" d="M 81.5,121.5 C 82.1667,121.5 82.8333,121.5 83.5,121.5C 82.7701,122.712 81.7701,123.712 80.5,124.5C 80.8627,125.183 81.1961,125.85 81.5,126.5C 79.4068,125.955 77.4068,125.122 75.5,124C 74.2264,123.023 74.2264,122.189 75.5,121.5C 77.5,120.167 79.5,120.167 81.5,121.5 Z"/></g>
<g><path style="opacity:0.384" fill="#b8b7b8" d="M 48.5,116.5 C 47.5084,123.648 47.175,130.981 47.5,138.5C 48.8333,138.5 50.1667,138.5 51.5,138.5C 51.3342,133.821 51.5008,129.155 52,124.5C 52.7172,125.044 53.2172,125.711 53.5,126.5C 52.6618,126.842 52.3284,127.508 52.5,128.5C 52.5,129.167 52.5,129.833 52.5,130.5C 52.012,133.711 52.6787,136.544 54.5,139C 52.6711,139.273 51.1711,140.107 50,141.5C 49.3292,140.748 48.4959,140.414 47.5,140.5C 46.5701,136.6 46.2367,132.6 46.5,128.5C 46.5,127.167 46.5,125.833 46.5,124.5C 46.6633,122.143 46.4966,119.81 46,117.5C 45.4444,119.595 44.9444,119.762 44.5,118C 45.555,115.945 46.8883,115.445 48.5,116.5 Z"/></g>
<g><path style="opacity:1" fill="#333132" d="M 156.5,116.5 C 159.5,116.5 162.5,116.5 165.5,116.5C 165.833,116.5 166.167,116.5 166.5,116.5C 167.798,118.909 167.131,120.575 164.5,121.5C 160.579,119.694 157.412,120.694 155,124.5C 154.211,126.712 154.378,128.712 155.5,130.5C 156.5,131.833 157.5,133.167 158.5,134.5C 160.167,135.833 161.833,135.833 163.5,134.5C 163.833,134.5 164.167,134.5 164.5,134.5C 165.609,134.557 166.609,134.89 167.5,135.5C 167.5,135.833 167.5,136.167 167.5,136.5C 167.5,137.167 167.5,137.833 167.5,138.5C 163.881,139.244 160.215,139.577 156.5,139.5C 155.833,139.5 155.167,139.5 154.5,139.5C 154.5,139.167 154.5,138.833 154.5,138.5C 153.833,137.167 152.833,136.167 151.5,135.5C 148.833,130.5 148.833,125.5 151.5,120.5C 152.833,119.833 153.833,118.833 154.5,117.5C 154.842,116.662 155.508,116.328 156.5,116.5 Z"/></g>
<g><path style="opacity:0.016" fill="#e3e3e3" d="M 164.5,121.5 C 162.712,121.215 161.045,121.548 159.5,122.5C 158.329,124.169 156.996,125.669 155.5,127C 155.905,127.945 156.572,128.612 157.5,129C 156.584,129.278 155.918,129.778 155.5,130.5C 154.378,128.712 154.211,126.712 155,124.5C 157.412,120.694 160.579,119.694 164.5,121.5 Z"/></g>
<g><path style="opacity:1" fill="#312f30" d="M 51.5,116.5 C 51.8333,117.5 52.5,118.167 53.5,118.5C 53.3284,119.492 53.6618,120.158 54.5,120.5C 55.5,120.833 56.1667,121.5 56.5,122.5C 56.7376,124.404 57.7376,125.738 59.5,126.5C 59.4614,127.756 59.9614,128.756 61,129.5C 61.499,125.179 61.6657,120.846 61.5,116.5C 62.8333,116.5 64.1667,116.5 65.5,116.5C 65.5,123.833 65.5,131.167 65.5,138.5C 64.1667,138.5 62.8333,138.5 61.5,138.5C 60.9744,136.77 59.9744,135.436 58.5,134.5C 58.6716,133.508 58.3382,132.842 57.5,132.5C 57.2624,130.596 56.2624,129.262 54.5,128.5C 54.1667,127.833 53.8333,127.167 53.5,126.5C 53.2172,125.711 52.7172,125.044 52,124.5C 51.5008,129.155 51.3342,133.821 51.5,138.5C 50.1667,138.5 48.8333,138.5 47.5,138.5C 47.175,130.981 47.5084,123.648 48.5,116.5C 49.6522,115.375 50.6522,115.375 51.5,116.5 Z M 53.5,126.5 C 53.8333,127.167 54.1667,127.833 54.5,128.5C 53.8333,128.5 53.1667,128.5 52.5,128.5C 52.3284,127.508 52.6618,126.842 53.5,126.5 Z"/></g>
<g><path style="opacity:0.004" fill="#fefffe" d="M 57.5,120.5 C 56.8333,119.167 56.8333,119.167 57.5,120.5 Z"/></g>
<g><path style="opacity:0.01" fill="#e7e6e7" d="M 53.5,118.5 C 55.6977,118.409 56.0311,119.075 54.5,120.5C 53.6618,120.158 53.3284,119.492 53.5,118.5 Z"/></g>
<g><path style="opacity:0.008" fill="#fefffe" d="M 57.5,117.5 C 58.8333,118.167 58.8333,118.167 57.5,117.5 Z"/></g>
<g><path style="opacity:0.004" fill="#fefffe" d="M 54.5,116.5 C 55.8333,117.167 55.8333,117.167 54.5,116.5 Z"/></g>
<g><path style="opacity:0.384" fill="#c3c3c3" d="M 61.5,116.5 C 61.6657,120.846 61.499,125.179 61,129.5C 59.9614,128.756 59.4614,127.756 59.5,126.5C 57.7376,125.738 56.7376,124.404 56.5,122.5C 57.3382,122.158 57.6716,121.492 57.5,120.5C 58.4232,121.303 59.4232,121.47 60.5,121C 60.3842,119.732 60.0509,118.398 59.5,117C 60.0944,116.536 60.7611,116.369 61.5,116.5 Z"/></g>
<g><path style="opacity:1" fill="#343333" d="M 73.5,116.5 C 76.5,116.5 79.5,116.5 82.5,116.5C 83.3007,118.042 83.634,119.708 83.5,121.5C 82.8333,121.5 82.1667,121.5 81.5,121.5C 79.5,120.167 77.5,120.167 75.5,121.5C 74.2264,122.189 74.2264,123.023 75.5,124C 77.4068,125.122 79.4068,125.955 81.5,126.5C 83.8333,126.833 85.1667,128.167 85.5,130.5C 85.6747,132.621 85.3414,134.621 84.5,136.5C 80.9912,139.115 76.9912,140.115 72.5,139.5C 72.1667,139.5 71.8333,139.5 71.5,139.5C 69.5446,138.553 69.2113,137.219 70.5,135.5C 73.0567,135.218 75.7234,135.051 78.5,135C 80.5922,134.047 80.9255,132.714 79.5,131C 76.1853,129.962 73.1853,128.462 70.5,126.5C 69.8505,124.565 69.5172,122.565 69.5,120.5C 70.8333,119.167 72.1667,117.833 73.5,116.5 Z"/></g>
<g><path style="opacity:0.01" fill="#fefffe" d="M 99.5,122.5 C 100.376,122.369 101.043,122.702 101.5,123.5C 100.675,124.386 99.675,124.719 98.5,124.5C 98.5,124.167 98.5,123.833 98.5,123.5C 99.1667,123.5 99.5,123.167 99.5,122.5 Z"/></g>
<g><path style="opacity:0.004" fill="#fefffe" d="M 161.5,122.5 C 162.833,123.167 162.833,123.167 161.5,122.5 Z"/></g>
<g><path style="opacity:0.004" fill="#fefffe" d="M 168.5,122.5 C 168.833,122.5 169.167,122.5 169.5,122.5C 169.315,123.17 168.981,123.17 168.5,122.5 Z"/></g>
<g><path style="opacity:0.016" fill="#e8e7e8" d="M 46.5,124.5 C 46.5,125.833 46.5,127.167 46.5,128.5C 46.7099,134.061 44.0432,137.394 38.5,138.5C 42.1511,133.889 43.4845,128.556 42.5,122.5C 43.2216,122.082 43.7216,121.416 44,120.5C 44.2004,122.32 45.0337,123.653 46.5,124.5 Z"/></g>
<g><path style="opacity:1" fill="#343233" d="M 109.5,116.5 C 112.5,116.5 115.5,116.5 118.5,116.5C 118.833,116.5 119.167,116.5 119.5,116.5C 121.142,117.803 122.809,119.136 124.5,120.5C 124.5,120.833 124.5,121.167 124.5,121.5C 124.66,123.199 124.494,124.866 124,126.5C 122.647,127.685 121.48,129.019 120.5,130.5C 120.855,131.522 121.522,132.189 122.5,132.5C 123.441,134.466 124.441,136.466 125.5,138.5C 123.604,139.466 121.604,139.799 119.5,139.5C 119.771,137.62 119.104,136.287 117.5,135.5C 116.931,132.665 115.264,130.999 112.5,130.5C 112.5,133.167 112.5,135.833 112.5,138.5C 111.167,138.5 109.833,138.5 108.5,138.5C 108.203,131.08 108.536,123.746 109.5,116.5 Z M 117.5,135.5 C 116.923,136.773 116.257,136.773 115.5,135.5C 115.97,134.537 116.637,134.537 117.5,135.5 Z"/></g>
<g><path style="opacity:0.021" fill="#f0eef0" d="M 118.5,125.5 C 116.735,126.461 114.735,126.795 112.5,126.5C 112.5,124.5 112.5,122.5 112.5,120.5C 115.885,119.79 118.219,120.956 119.5,124C 119.43,124.765 119.097,125.265 118.5,125.5 Z"/></g>
<g><path style="opacity:1" fill="#333132" d="M 36.5,116.5 C 37.1667,116.5 37.8333,116.5 38.5,116.5C 38.5,116.833 38.5,117.167 38.5,117.5C 38.8333,118.5 39.5,119.167 40.5,119.5C 41.9063,119.973 42.573,120.973 42.5,122.5C 43.4845,128.556 42.1511,133.889 38.5,138.5C 32.19,140.748 26.8567,139.415 22.5,134.5C 22.5,134.167 22.5,133.833 22.5,133.5C 20.2818,127.12 21.6151,121.787 26.5,117.5C 29.7644,116.676 33.0977,116.342 36.5,116.5 Z M 36.5,124.5 C 36.8333,124.5 37.1667,124.5 37.5,124.5C 37.5,124.833 37.5,125.167 37.5,125.5C 37.1583,126.338 36.4916,126.672 35.5,126.5C 35.5,126.167 35.5,125.833 35.5,125.5C 36.1667,125.5 36.5,125.167 36.5,124.5 Z M 34.5,123.5 C 34.8333,124.167 35.1667,124.833 35.5,125.5C 34.1667,125.833 34.1667,126.167 35.5,126.5C 36.7954,127.031 37.4621,128.364 37.5,130.5C 36.6618,130.842 36.3284,131.508 36.5,132.5C 35.7321,131.737 35.2321,130.737 35,129.5C 34.3378,130.984 33.5045,132.317 32.5,133.5C 31.8333,133.833 31.1667,134.167 30.5,134.5C 30.1583,133.662 29.4916,133.328 28.5,133.5C 27.6285,130.728 27.6285,128.062 28.5,125.5C 30.1417,123.919 32.1417,123.253 34.5,123.5 Z"/></g>
<g><path style="opacity:0.392" fill="#c6c5c5" d="M 34.5,122.5 C 34.5,122.167 34.5,121.833 34.5,121.5C 36.5,121.5 37.5,122.5 37.5,124.5C 37.1667,124.5 36.8333,124.5 36.5,124.5C 36.1667,123.5 35.5,122.833 34.5,122.5 Z"/></g>
<g><path style="opacity:0.02" fill="#f0f0f0" d="M 29.5,121.5 C 31.1667,120.167 32.8333,120.167 34.5,121.5C 31.8333,121.833 31.8333,122.167 34.5,122.5C 34.5,122.833 34.5,123.167 34.5,123.5C 32.1417,123.253 30.1417,123.919 28.5,125.5C 27.6285,128.062 27.6285,130.728 28.5,133.5C 27.0277,131.883 26.361,129.883 26.5,127.5C 26.6667,126.167 26.8333,124.833 27,123.5C 27.3826,122.944 27.8826,122.611 28.5,122.5C 28.8333,123.833 29.1667,123.833 29.5,122.5C 32.1667,122.167 32.1667,121.833 29.5,121.5 Z"/></g>
<g><path style="opacity:0.408" fill="#b2b0b0" d="M 37.5,125.5 C 38.8333,127.167 38.8333,128.833 37.5,130.5C 37.4621,128.364 36.7954,127.031 35.5,126.5C 36.4916,126.672 37.1583,126.338 37.5,125.5 Z"/></g>
<g><path style="opacity:0.016" fill="#fefffe" d="M 156.5,126.5 C 157.833,127.167 157.833,127.167 156.5,126.5 Z"/></g>
<g><path style="opacity:0.608" fill="#969495" d="M 98.5,120.5 C 98.5,121.167 98.5,121.833 98.5,122.5C 98.5,122.833 98.5,123.167 98.5,123.5C 98.5,123.833 98.5,124.167 98.5,124.5C 98.5774,125.75 99.244,126.583 100.5,127C 99.3159,128.18 98.6493,129.68 98.5,131.5C 98.6493,133.32 99.3159,134.82 100.5,136C 97.8333,136.667 97.8333,137.333 100.5,138C 99.5842,138.278 98.9175,138.778 98.5,139.5C 96.8333,139.5 95.1667,139.5 93.5,139.5C 93.5,139.167 93.5,138.833 93.5,138.5C 94.8333,138.5 96.1667,138.5 97.5,138.5C 97.1771,132.31 97.5104,126.31 98.5,120.5 Z"/></g>
<g><path style="opacity:0.773" fill="#696868" d="M 181.5,120.5 C 181.5,125.833 181.5,131.167 181.5,136.5C 182.116,137.798 182.116,138.798 181.5,139.5C 180.5,139.5 179.5,139.5 178.5,139.5C 177.833,139.5 177.5,139.833 177.5,140.5C 177.167,140.5 176.833,140.5 176.5,140.5C 176.5,140.167 176.5,139.833 176.5,139.5C 176.5,139.167 176.5,138.833 176.5,138.5C 177.833,138.5 179.167,138.5 180.5,138.5C 180.177,132.31 180.51,126.31 181.5,120.5 Z"/></g>
<g><path style="opacity:0.645" fill="#7a7879" d="M 191.5,116.5 C 191.5,123.833 191.5,131.167 191.5,138.5C 192.833,138.5 194.167,138.5 195.5,138.5C 195.5,138.833 195.5,139.167 195.5,139.5C 194.167,139.5 192.833,139.5 191.5,139.5C 190.566,138.432 190.232,137.099 190.5,135.5C 190.5,135.167 190.5,134.833 190.5,134.5C 190.5,132.167 190.5,129.833 190.5,127.5C 190.185,123.629 190.518,119.962 191.5,116.5 Z"/></g>
<g><path style="opacity:0.806" fill="#636162" d="M 109.5,116.5 C 108.536,123.746 108.203,131.08 108.5,138.5C 109.833,138.5 111.167,138.5 112.5,138.5C 112.5,138.833 112.5,139.167 112.5,139.5C 112.5,140.167 112.167,140.5 111.5,140.5C 111.5,139.833 111.167,139.5 110.5,139.5C 109.5,139.5 108.5,139.5 107.5,139.5C 107.5,139.167 107.5,138.833 107.5,138.5C 107.5,137.5 107.5,136.5 107.5,135.5C 107.27,131.016 107.27,126.683 107.5,122.5C 107.025,119.918 107.692,117.918 109.5,116.5 Z"/></g>
<g><path style="opacity:0.027" fill="#f6f6f6" d="M 7.5,130.5 C 9.69772,130.409 10.0311,131.075 8.5,132.5C 7.66175,132.158 7.32842,131.492 7.5,130.5 Z"/></g>
<g><path style="opacity:0.433" fill="#a09f9f" d="M 65.5,116.5 C 66.4916,116.328 67.1583,116.662 67.5,117.5C 66.5104,123.31 66.1771,129.31 66.5,135.5C 66.5,136.5 66.5,137.5 66.5,138.5C 66.5,138.833 66.5,139.167 66.5,139.5C 64.5853,139.784 62.9187,139.451 61.5,138.5C 62.8333,138.5 64.1667,138.5 65.5,138.5C 65.5,131.167 65.5,123.833 65.5,116.5 Z"/></g>
<g><path style="opacity:1" fill="#353435" d="M 229.5,116.5 C 229.833,116.5 230.167,116.5 230.5,116.5C 230.5,116.833 230.5,117.167 230.5,117.5C 230.833,118.5 231.5,119.167 232.5,119.5C 234.837,122.681 237.004,126.014 239,129.5C 239.495,127.527 239.662,125.527 239.5,123.5C 239.5,122.5 239.5,121.5 239.5,120.5C 239.5,119.167 239.5,117.833 239.5,116.5C 241.167,116.5 242.833,116.5 244.5,116.5C 244.5,124.167 244.5,131.833 244.5,139.5C 243.167,139.5 241.833,139.5 240.5,139.5C 239.5,138.167 238.5,136.833 237.5,135.5C 237.34,133.847 236.674,132.514 235.5,131.5C 234.763,129.695 233.763,128.029 232.5,126.5C 231.743,125.227 231.077,125.227 230.5,126.5C 230.5,126.833 230.5,127.167 230.5,127.5C 230.5,130.167 230.5,132.833 230.5,135.5C 230.634,137.292 230.301,138.958 229.5,140.5C 228.167,139.167 226.833,139.167 225.5,140.5C 225.5,139.167 225.5,137.833 225.5,136.5C 225.5,135.167 225.5,133.833 225.5,132.5C 225.5,132.167 225.5,131.833 225.5,131.5C 225.5,130.5 225.5,129.5 225.5,128.5C 225.5,125.5 225.5,122.5 225.5,119.5C 225.5,118.5 225.5,117.5 225.5,116.5C 226.833,116.5 228.167,116.5 229.5,116.5 Z"/></g>
<g><path style="opacity:0.019" fill="#f2f2f2" d="M 230.5,126.5 C 231.077,125.227 231.743,125.227 232.5,126.5C 233.763,128.029 234.763,129.695 235.5,131.5C 236.674,132.514 237.34,133.847 237.5,135.5C 235.983,135.489 234.816,134.823 234,133.5C 233.29,134.973 232.124,135.64 230.5,135.5C 230.5,132.833 230.5,130.167 230.5,127.5C 231.833,127.167 231.833,126.833 230.5,126.5 Z"/></g>
<g><path style="opacity:0.013" fill="#f1eff0" d="M 117.5,135.5 C 119.104,136.287 119.771,137.62 119.5,139.5C 117.956,139.297 116.622,138.63 115.5,137.5C 114.749,138.376 114.249,139.376 114,140.5C 113.617,139.944 113.117,139.611 112.5,139.5C 112.5,139.167 112.5,138.833 112.5,138.5C 112.5,135.833 112.5,133.167 112.5,130.5C 115.264,130.999 116.931,132.665 117.5,135.5 Z M 117.5,135.5 C 116.637,134.537 115.97,134.537 115.5,135.5C 116.257,136.773 116.923,136.773 117.5,135.5 Z"/></g>
<g><path style="opacity:0.012" fill="#fefffe" d="M 165.5,132.5 C 164.833,131.167 164.833,131.167 165.5,132.5 Z"/></g>
<g><path style="opacity:0.043" fill="#ededed" d="M 8.5,132.5 C 9.83333,132.5 10.5,133.167 10.5,134.5C 9.5,134.167 8.83333,133.5 8.5,132.5 Z"/></g>
<g><path style="opacity:0.009" fill="#e8e7e7" d="M 36.5,132.5 C 35.0804,135.349 33.0804,136.016 30.5,134.5C 31.1667,134.167 31.8333,133.833 32.5,133.5C 33.5045,132.317 34.3378,130.984 35,129.5C 35.2321,130.737 35.7321,131.737 36.5,132.5 Z"/></g>
<g><path style="opacity:0.016" fill="#f2f1f2" d="M 70.5,126.5 C 73.1853,128.462 76.1853,129.962 79.5,131C 80.9255,132.714 80.5922,134.047 78.5,135C 75.7234,135.051 73.0567,135.218 70.5,135.5C 69.2113,137.219 69.5446,138.553 71.5,139.5C 70.5084,139.328 69.8417,139.662 69.5,140.5C 65.9847,141.385 62.6514,141.551 59.5,141C 57.5594,136.422 55.226,132.922 52.5,130.5C 52.5,129.833 52.5,129.167 52.5,128.5C 53.1667,128.5 53.8333,128.5 54.5,128.5C 56.2624,129.262 57.2624,130.596 57.5,132.5C 58.3382,132.842 58.6716,133.508 58.5,134.5C 59.9744,135.436 60.9744,136.77 61.5,138.5C 62.9187,139.451 64.5853,139.784 66.5,139.5C 69.1667,139.167 69.1667,138.833 66.5,138.5C 66.5,137.5 66.5,136.5 66.5,135.5C 67.2679,134.737 67.7679,133.737 68,132.5C 74.2646,133.977 75.0979,131.977 70.5,126.5 Z"/></g>
<g><path style="opacity:0.004" fill="#fefffe" d="M 168.5,132.5 C 169.833,133.167 169.833,133.167 168.5,132.5 Z"/></g>
<g><path style="opacity:0.29" fill="#d6d3d4" d="M 19.5,135.5 C 18.2921,134.766 16.9587,134.433 15.5,134.5C 15.3893,133.883 15.056,133.383 14.5,133C 15.825,133.148 16.9916,132.982 18,132.5C 19.0386,133.244 19.5386,134.244 19.5,135.5 Z"/></g>
<g><path style="opacity:0.013" fill="#f8f6f6" d="M 85.5,130.5 C 86.1471,131.274 86.4805,132.274 86.5,133.5C 86.3601,135.03 85.6935,136.03 84.5,136.5C 85.3414,134.621 85.6747,132.621 85.5,130.5 Z"/></g>
<g><path style="opacity:0.384" fill="#d0d0d0" d="M 165.5,132.5 C 166.833,133.167 167.833,134.167 168.5,135.5C 168.167,135.5 167.833,135.5 167.5,135.5C 166.609,134.89 165.609,134.557 164.5,134.5C 164.833,133.833 165.167,133.167 165.5,132.5 Z"/></g>
<g><path style="opacity:0.992" fill="#363535" d="M 8.5,116.5 C 11.5,116.5 14.5,116.5 17.5,116.5C 18.4916,116.328 19.1583,116.662 19.5,117.5C 19.4456,119.632 18.4456,120.965 16.5,121.5C 14.5,120.167 12.5,120.167 10.5,121.5C 8.5,121.5 7.5,122.5 7.5,124.5C 7.5,126.5 7.5,128.5 7.5,130.5C 7.32842,131.492 7.66175,132.158 8.5,132.5C 8.83333,133.5 9.5,134.167 10.5,134.5C 10.8333,134.5 11.1667,134.5 11.5,134.5C 12.8333,135.833 14.1667,135.833 15.5,134.5C 16.9587,134.433 18.2921,134.766 19.5,135.5C 19.5,136.5 19.5,137.5 19.5,138.5C 18.5084,138.328 17.8417,138.662 17.5,139.5C 17.1667,139.5 16.8333,139.5 16.5,139.5C 14.1667,139.5 11.8333,139.5 9.5,139.5C 8.5,139.5 7.5,139.5 6.5,139.5C 6.5,139.167 6.5,138.833 6.5,138.5C 6.16667,137.5 5.5,136.833 4.5,136.5C 3.83333,136.167 3.16667,135.833 2.5,135.5C 2.5,134.833 2.5,134.167 2.5,133.5C 2.73731,132.209 2.40397,131.209 1.5,130.5C 1.5,130.167 1.5,129.833 1.5,129.5C 1.35016,125.805 2.35016,122.472 4.5,119.5C 4.5,118.167 5.16667,117.5 6.5,117.5C 7.49162,117.672 8.15829,117.338 8.5,116.5 Z"/></g>
<g><path style="opacity:0.349" fill="#bdbcbd" d="M 15.5,134.5 C 14.1667,135.833 12.8333,135.833 11.5,134.5C 11.8795,133.867 12.2129,133.2 12.5,132.5C 13.2652,133.612 14.2652,134.279 15.5,134.5 Z"/></g>
<g><path style="opacity:0.42" fill="#a9a9a9" d="M 163.5,134.5 C 161.833,135.833 160.167,135.833 158.5,134.5C 160.29,134.289 161.956,134.289 163.5,134.5 Z"/></g>
<g><path style="opacity:0.024" fill="#f4f4f4" d="M 200.5,133.5 C 201.488,134.795 202.488,136.128 203.5,137.5C 202.508,137.328 201.842,137.662 201.5,138.5C 200.599,137.71 199.932,136.71 199.5,135.5C 200.338,135.158 200.672,134.492 200.5,133.5 Z"/></g>
<g><path style="opacity:1" fill="#323131" d="M 128.5,116.5 C 129.833,116.5 131.167,116.5 132.5,116.5C 132.179,122.026 132.512,127.36 133.5,132.5C 134.509,135.166 136.176,135.833 138.5,134.5C 138.833,133.5 139.5,132.833 140.5,132.5C 141.488,127.36 141.821,122.026 141.5,116.5C 142.833,116.5 144.167,116.5 145.5,116.5C 145.5,122.833 145.5,129.167 145.5,135.5C 145.5,135.833 145.5,136.167 145.5,136.5C 145.167,136.5 144.833,136.5 144.5,136.5C 143.5,136.833 142.833,137.5 142.5,138.5C 138.833,139.833 135.167,139.833 131.5,138.5C 130.878,137.373 130.045,136.373 129,135.5C 128.5,129.175 128.334,122.842 128.5,116.5 Z"/></g>
<g><path style="opacity:0.02" fill="#d6d4d5" d="M 133.5,132.5 C 133.833,132.5 134.167,132.5 134.5,132.5C 135.514,133.674 136.847,134.34 138.5,134.5C 136.176,135.833 134.509,135.166 133.5,132.5 Z"/></g>
<g><path style="opacity:0.004" fill="#fefffe" d="M 134.5,131.5 C 135.833,132.167 135.833,132.167 134.5,131.5 Z"/></g>
<g><path style="opacity:0.408" fill="#b9b8b9" d="M 141.5,116.5 C 141.821,122.026 141.488,127.36 140.5,132.5C 140.167,131.167 139.833,129.833 139.5,128.5C 140.431,124.757 140.431,121.09 139.5,117.5C 139.957,116.702 140.624,116.369 141.5,116.5 Z"/></g>
<g><path style="opacity:0.016" fill="#fefffe" d="M 134.5,129.5 C 135.833,130.167 135.833,130.167 134.5,129.5 Z"/></g>
<g><path style="opacity:0.004" fill="#fefffe" d="M 139.5,128.5 C 138.833,127.167 138.833,127.167 139.5,128.5 Z"/></g>
<g><path style="opacity:0.031" fill="#fefffe" d="M 168.5,135.5 C 169.833,136.167 169.833,136.167 168.5,135.5 Z"/></g>
<g><path style="opacity:0.035" fill="#e5e5e5" d="M 2.5,135.5 C 2.63101,136.239 2.46434,136.906 2,137.5C 1.30831,136.563 1.47498,135.897 2.5,135.5 Z"/></g>
<g><path style="opacity:0.027" fill="#fefffe" d="M 53.5,136.5 C 54.8333,137.167 54.8333,137.167 53.5,136.5 Z"/></g>
<g><path style="opacity:0.039" fill="#e5e6e5" d="M 145.5,136.5 C 146.833,137.167 146.833,137.167 145.5,136.5 Z"/></g>
<g><path style="opacity:1" fill="#323031" d="M 206.5,116.5 C 209.5,116.5 212.5,116.5 215.5,116.5C 215.973,117.906 216.973,118.573 218.5,118.5C 218.932,119.71 219.599,120.71 220.5,121.5C 220.833,122.833 221.167,124.167 221.5,125.5C 221.5,125.833 221.5,126.167 221.5,126.5C 221.5,127.167 221.5,127.833 221.5,128.5C 221.5,128.833 221.5,129.167 221.5,129.5C 220.833,131.833 220.167,134.167 219.5,136.5C 216.993,137.892 214.327,138.892 211.5,139.5C 210.833,139.5 210.167,139.5 209.5,139.5C 207.579,138.637 205.579,137.971 203.5,137.5C 202.488,136.128 201.488,134.795 200.5,133.5C 200.5,133.167 200.5,132.833 200.5,132.5C 200.167,131.833 199.833,131.167 199.5,130.5C 199.5,129.833 199.5,129.167 199.5,128.5C 199.5,127.833 199.5,127.167 199.5,126.5C 199.5,126.167 199.5,125.833 199.5,125.5C 200.5,123.5 201.5,121.5 202.5,119.5C 202.5,118.833 202.833,118.5 203.5,118.5C 204.71,118.068 205.71,117.401 206.5,116.5 Z M 215.5,123.5 C 215.5,123.833 215.5,124.167 215.5,124.5C 215.844,125.683 215.178,126.516 213.5,127C 215.037,128.11 215.703,129.61 215.5,131.5C 214.778,131.082 214.278,130.416 214,129.5C 212.522,132.993 210.522,133.326 208,130.5C 207.445,128.279 207.612,125.946 208.5,123.5C 210.998,124.082 213.331,124.082 215.5,123.5 Z"/></g>
<g><path style="opacity:0.017" fill="#eeeeee" d="M 215.5,124.5 C 216.833,126.833 216.833,129.167 215.5,131.5C 215.703,129.61 215.037,128.11 213.5,127C 215.178,126.516 215.844,125.683 215.5,124.5 Z"/></g>
<g><path style="opacity:0.015" fill="#eaeaea" d="M 215.5,123.5 C 213.331,124.082 210.998,124.082 208.5,123.5C 207.612,125.946 207.445,128.279 208,130.5C 210.522,133.326 212.522,132.993 214,129.5C 214.278,130.416 214.778,131.082 215.5,131.5C 215.426,133.411 214.426,134.578 212.5,135C 210.934,135.765 209.601,135.598 208.5,134.5C 212.5,134.167 212.5,133.833 208.5,133.5C 208.167,132.167 207.833,132.167 207.5,133.5C 206.094,133.027 205.427,132.027 205.5,130.5C 205.938,130.565 206.272,130.399 206.5,130C 204.079,127.087 204.412,124.254 207.5,121.5C 210.873,119.771 213.54,120.437 215.5,123.5 Z"/></g>
<g><path style="opacity:0.039" fill="#e5e6e5" d="M 220.5,136.5 C 221.833,137.167 221.833,137.167 220.5,136.5 Z"/></g>
<g><path style="opacity:0.02" fill="#fefffe" d="M 224.5,136.5 C 224.649,137.552 224.483,138.552 224,139.5C 223.26,138.251 223.427,137.251 224.5,136.5 Z"/></g>
<g><path style="opacity:0.006" fill="#e7e7e7" d="M 4.5,136.5 C 5.5,136.833 6.16667,137.5 6.5,138.5C 5.83333,138.5 5.5,138.833 5.5,139.5C 3.51877,138.895 3.18543,137.895 4.5,136.5 Z"/></g>
<g><path style="opacity:0.02" fill="#fefffe" d="M 44.5,137.5 C 45.8333,138.167 45.8333,138.167 44.5,137.5 Z"/></g>
<g><path style="opacity:0.059" fill="#f7f7f7" d="M 107.5,135.5 C 107.5,136.5 107.5,137.5 107.5,138.5C 105.443,138.043 105.443,137.043 107.5,135.5 Z"/></g>
<g><path style="opacity:0.031" fill="#d8d8d8" d="M 144.5,136.5 C 144.5,137.833 143.833,138.5 142.5,138.5C 142.833,137.5 143.5,136.833 144.5,136.5 Z"/></g>
<g><path style="opacity:0.004" fill="#fefffe" d="M 150.5,137.5 C 149.833,138.167 149.833,138.167 150.5,137.5 Z"/></g>
<g><path style="opacity:0.014" fill="#e7e7e7" d="M 151.5,135.5 C 152.833,136.167 153.833,137.167 154.5,138.5C 153.833,138.5 153.5,138.833 153.5,139.5C 152.5,138.833 151.5,138.167 150.5,137.5C 150.833,136.833 151.167,136.167 151.5,135.5 Z"/></g>
<g><path style="opacity:0.188" fill="#e2e2e2" d="M 167.5,136.5 C 167.833,136.5 168.167,136.5 168.5,136.5C 170.031,137.925 169.698,138.591 167.5,138.5C 167.5,137.833 167.5,137.167 167.5,136.5 Z"/></g>
<g><path style="opacity:0.017" fill="#e6e6e6" d="M 203.5,137.5 C 205.579,137.971 207.579,138.637 209.5,139.5C 207.721,139.374 205.721,139.708 203.5,140.5C 203.5,139.5 203.5,138.5 203.5,137.5 Z"/></g>
<g><path style="opacity:0.009" fill="#efefef" d="M 219.5,136.5 C 219.238,138.564 218.071,139.897 216,140.5C 214.723,141.072 213.223,141.072 211.5,140.5C 211.5,140.167 211.5,139.833 211.5,139.5C 214.327,138.892 216.993,137.892 219.5,136.5 Z"/></g>
<g><path style="opacity:0.004" fill="#fefffe" d="M 22.5,138.5 C 23.8333,139.167 23.8333,139.167 22.5,138.5 Z"/></g>
<g><path style="opacity:0.02" fill="#fefffe" d="M 145.5,138.5 C 146.833,139.167 146.833,139.167 145.5,138.5 Z"/></g>
<g><path style="opacity:0.019" fill="#fafafa" d="M 167.5,138.5 C 167.918,139.222 168.584,139.722 169.5,140C 167.419,140.869 165.253,141.369 163,141.5C 160.859,140.888 158.859,140.888 157,141.5C 156.536,140.906 156.369,140.239 156.5,139.5C 160.215,139.577 163.881,139.244 167.5,138.5 Z"/></g>
<g><path style="opacity:0.012" fill="#fefffe" d="M 201.5,138.5 C 202.833,139.167 202.833,139.167 201.5,138.5 Z"/></g>
<g><path style="opacity:0.016" fill="#fefffe" d="M 5.5,139.5 C 5.83333,139.5 6.16667,139.5 6.5,139.5C 6.31468,140.17 5.98135,140.17 5.5,139.5 Z"/></g>
<g><path style="opacity:0.01" fill="#f8f8f8" d="M 9.5,139.5 C 11.8333,139.5 14.1667,139.5 16.5,139.5C 18.0311,140.925 17.6977,141.591 15.5,141.5C 14.1155,140.199 12.6155,140.199 11,141.5C 10.2828,140.956 9.78281,140.289 9.5,139.5 Z"/></g>
<g><path style="opacity:0.012" fill="#f3f3f3" d="M 17.5,139.5 C 17.8417,138.662 18.5084,138.328 19.5,138.5C 20.5042,140.677 19.8375,141.011 17.5,139.5 Z"/></g>
<g><path style="opacity:0.027" fill="#fefffe" d="M 38.5,139.5 C 39.8333,140.167 39.8333,140.167 38.5,139.5 Z"/></g>
<g><path style="opacity:0.009" fill="#fbfbfb" d="M 93.5,139.5 C 95.1667,139.5 96.8333,139.5 98.5,139.5C 96.9622,142.048 95.2956,142.048 93.5,139.5 Z"/></g>
<g><path style="opacity:0.01" fill="#f9f9f9" d="M 107.5,139.5 C 108.5,139.5 109.5,139.5 110.5,139.5C 111.167,139.5 111.5,139.833 111.5,140.5C 109.872,141.853 108.538,141.519 107.5,139.5 Z"/></g>
<g><path style="opacity:0.018" fill="#fafafa" d="M 131.5,138.5 C 135.167,139.833 138.833,139.833 142.5,138.5C 143.853,139.526 144.853,140.859 145.5,142.5C 144.833,142.5 144.167,142.5 143.5,142.5C 143.214,140.067 142.548,140.067 141.5,142.5C 140.833,142.5 140.5,142.833 140.5,143.5C 139.167,143.5 137.833,143.5 136.5,143.5C 134.981,142.59 133.315,141.757 131.5,141C 132.598,140.23 132.598,139.397 131.5,138.5 Z M 143.5,142.5 C 142.833,142.5 142.167,142.5 141.5,142.5C 142.548,140.067 143.214,140.067 143.5,142.5 Z"/></g>
<g><path style="opacity:0.008" fill="#fefffe" d="M 153.5,139.5 C 153.833,139.5 154.167,139.5 154.5,139.5C 154.167,142.167 153.833,142.167 153.5,139.5 Z"/></g>
<g><path style="opacity:0.011" fill="#fefffe" d="M 178.5,139.5 C 179.5,139.5 180.5,139.5 181.5,139.5C 181.611,140.117 181.944,140.617 182.5,141C 180.613,141.78 178.946,141.613 177.5,140.5C 178.167,140.5 178.5,140.167 178.5,139.5 Z"/></g>
<g><path style="opacity:0.014" fill="#fcfcfc" d="M 191.5,139.5 C 192.833,139.5 194.167,139.5 195.5,139.5C 195.5,139.833 195.5,140.167 195.5,140.5C 193.97,141.067 192.47,141.733 191,142.5C 190.53,141.423 190.697,140.423 191.5,139.5 Z"/></g>
<g><path style="opacity:0.008" fill="#fefffe" d="M 47.5,140.5 C 47.631,141.239 47.4643,141.906 47,142.5C 46.3083,141.563 46.475,140.897 47.5,140.5 Z"/></g>
<g><path style="opacity:0.012" fill="#fefffe" d="M 52.5,140.5 C 53.8333,141.167 53.8333,141.167 52.5,140.5 Z"/></g>
<g><path style="opacity:0.027" fill="#fefffe" d="M 176.5,140.5 C 175.833,141.167 175.833,141.167 176.5,140.5 Z"/></g>
<g><path style="opacity:0.035" fill="#e2e3e2" d="M 195.5,140.5 C 196.833,141.167 196.833,141.167 195.5,140.5 Z"/></g>
<g><path style="opacity:0.004" fill="#fefffe" d="M 211.5,140.5 C 210.833,141.167 210.833,141.167 211.5,140.5 Z"/></g>
<g><path style="opacity:0.024" fill="#fefffe" d="M 225.5,140.5 C 224.833,141.167 224.833,141.167 225.5,140.5 Z"/></g>
<g><path style="opacity:0.02" fill="#fefffe" d="M 229.5,140.5 C 230.833,141.167 230.833,141.167 229.5,140.5 Z"/></g>
<g><path style="opacity:0.039" fill="#e5e6e5" d="M 240.5,140.5 C 239.833,141.167 239.833,141.167 240.5,140.5 Z"/></g>
<g><path style="opacity:0.01" fill="#fefffe" d="M 15.5,141.5 C 15.1034,142.525 14.4368,142.692 13.5,142C 14.0944,141.536 14.7611,141.369 15.5,141.5 Z"/></g>
<g><path style="opacity:0.008" fill="#fefffe" d="M 226.5,142.5 C 226.897,141.475 227.563,141.308 228.5,142C 227.906,142.464 227.239,142.631 226.5,142.5 Z"/></g>
<g><path style="opacity:0.012" fill="#fefffe" d="M 244.5,141.5 C 243.833,142.167 243.833,142.167 244.5,141.5 Z"/></g>
<g><path style="opacity:0.011" fill="#e6e6e6" d="M 124.5,146.5 C 123.167,146.5 122.5,147.167 122.5,148.5C 122.167,148.5 121.833,148.5 121.5,148.5C 119.521,146.832 117.188,146.166 114.5,146.5C 115.531,145.751 116.698,145.085 118,144.5C 120.357,144.003 122.524,144.67 124.5,146.5 Z"/></g>
<g><path style="opacity:0.008" fill="#fefffe" d="M 153.5,145.5 C 153.897,144.475 154.563,144.308 155.5,145C 154.906,145.464 154.239,145.631 153.5,145.5 Z"/></g>
<g><path style="opacity:0.016" fill="#fefffe" d="M 172.5,145.5 C 171.833,144.167 171.833,144.167 172.5,145.5 Z"/></g>
<g><path style="opacity:0.008" fill="#fefffe" d="M 63.5,145.5 C 64.8333,146.167 64.8333,146.167 63.5,145.5 Z"/></g>
<g><path style="opacity:0.018" fill="#ececec" d="M 84.5,136.5 C 84.9528,137.458 85.6195,138.292 86.5,139C 85.0692,139.465 83.9025,140.299 83,141.5C 80.7116,141.263 78.2116,141.263 75.5,141.5C 75.5,142.5 75.5,143.5 75.5,144.5C 74.1667,144.833 74.1667,145.167 75.5,145.5C 75.5,146.167 75.8333,146.5 76.5,146.5C 75.1667,149.167 75.1667,151.833 76.5,154.5C 75.1667,154.5 74.5,155.167 74.5,156.5C 72.1979,155.178 69.8646,155.178 67.5,156.5C 66.537,156.03 66.537,155.363 67.5,154.5C 69.604,154.799 71.604,154.466 73.5,153.5C 73.0431,152.702 72.3764,152.369 71.5,152.5C 71.5,151.167 70.8333,150.5 69.5,150.5C 69.8333,151.167 70.1667,151.833 70.5,152.5C 67.7564,151.928 66.9231,150.262 68,147.5C 70.1313,146.385 71.9646,145.052 73.5,143.5C 74.1826,142.356 73.8493,142.356 72.5,143.5C 70.1417,143.253 68.1417,143.919 66.5,145.5C 66.3893,144.883 66.056,144.383 65.5,144C 66.6667,143.5 67.5,142.667 68,141.5C 69.0495,142.517 70.2161,142.684 71.5,142C 70.5842,141.722 69.9175,141.222 69.5,140.5C 70.791,140.737 71.791,140.404 72.5,139.5C 76.9912,140.115 80.9912,139.115 84.5,136.5 Z M 69.5,150.5 C 70.8333,150.5 71.5,151.167 71.5,152.5C 71.1667,152.5 70.8333,152.5 70.5,152.5C 70.1667,151.833 69.8333,151.167 69.5,150.5 Z"/></g>
<g><path style="opacity:0.2" fill="#dbdbdb" d="M 112.5,147.5 C 110.621,146.659 108.621,146.325 106.5,146.5C 106.783,145.711 107.283,145.044 108,144.5C 110.026,144.915 111.526,145.915 112.5,147.5 Z"/></g>
<g><path style="opacity:0.019" fill="#dfdfdf" d="M 129.5,146.5 C 128.222,146.782 127.222,147.449 126.5,148.5C 126.649,149.552 126.483,150.552 126,151.5C 124.731,150.095 124.231,148.429 124.5,146.5C 126.03,145.933 127.53,145.267 129,144.5C 129.464,145.094 129.631,145.761 129.5,146.5 Z"/></g>
<g><path style="opacity:0.043" fill="#e4e4e4" d="M 163.5,146.5 C 160.772,146.171 158.438,146.837 156.5,148.5C 155.833,148.5 155.5,148.833 155.5,149.5C 154.599,148.71 153.932,147.71 153.5,146.5C 155.936,146.683 158.103,146.016 160,144.5C 161,145.833 162,145.833 163,144.5C 163.464,145.094 163.631,145.761 163.5,146.5 Z"/></g>
<g><path style="opacity:0.171" fill="#e4e4e4" d="M 179.5,146.5 C 177.265,146.205 175.265,146.539 173.5,147.5C 173.167,147.5 172.833,147.5 172.5,147.5C 172.5,146.833 172.5,146.167 172.5,145.5C 174.467,145.739 176.301,145.406 178,144.5C 178.717,145.044 179.217,145.711 179.5,146.5 Z"/></g>
<g><path style="opacity:0.035" fill="#e2e3e2" d="M 181.5,146.5 C 180.833,145.167 180.833,145.167 181.5,146.5 Z"/></g>
<g><path style="opacity:0.015" fill="#f7f7f7" d="M 129.5,146.5 C 130.167,146.5 130.833,146.5 131.5,146.5C 131.908,150.625 130.574,153.959 127.5,156.5C 127.167,156.5 126.833,156.5 126.5,156.5C 127.5,153.167 128.5,149.833 129.5,146.5 Z"/></g>
<g><path style="opacity:0.006" fill="#ededed" d="M 146.5,143.5 C 147.75,143.577 148.583,144.244 149,145.5C 150.414,144.587 151.914,144.587 153.5,145.5C 153.5,145.833 153.5,146.167 153.5,146.5C 149.651,146.019 147.651,147.686 147.5,151.5C 146.833,151.5 146.5,151.833 146.5,152.5C 145.549,151.081 145.216,149.415 145.5,147.5C 147.109,146.335 147.443,145.001 146.5,143.5 Z"/></g>
<g><path style="opacity:0.024" fill="#fefffe" d="M 181.5,146.5 C 182.833,147.167 182.833,147.167 181.5,146.5 Z"/></g>
<g><path style="opacity:0.018" fill="#fefffe" d="M 65.5,147.5 C 65.5,148.167 65.5,148.833 65.5,149.5C 63.0673,148.452 63.0673,147.786 65.5,147.5 Z"/></g>
<g><path style="opacity:1" fill="#535353" d="M 114.5,146.5 C 117.188,146.166 119.521,146.832 121.5,148.5C 121.5,148.833 121.5,149.167 121.5,149.5C 121.5,151.167 121.5,152.833 121.5,154.5C 120.5,154.5 119.5,154.5 118.5,154.5C 118.5,153.167 118.5,151.833 118.5,150.5C 118.5,150.167 118.5,149.833 118.5,149.5C 118.44,148.957 118.107,148.624 117.5,148.5C 116.833,150.5 116.167,152.5 115.5,154.5C 114.52,151.914 114.187,149.247 114.5,146.5 Z"/></g>
<g><path style="opacity:0.027" fill="#f2f2f2" d="M 106.5,146.5 C 107.23,148.045 108.563,148.878 110.5,149C 108.753,149.352 107.086,149.852 105.5,150.5C 105.672,149.508 105.338,148.842 104.5,148.5C 103.833,148.5 103.5,148.167 103.5,147.5C 104.222,147.082 104.722,146.416 105,145.5C 105.383,146.056 105.883,146.389 106.5,146.5 Z"/></g>
<g><path style="opacity:0.035" fill="#fefffe" d="M 63.5,150.5 C 62.8333,149.167 62.8333,149.167 63.5,150.5 Z"/></g>
<g><path style="opacity:0.015" fill="#f0f0f0" d="M 141.5,142.5 C 142.167,142.5 142.833,142.5 143.5,142.5C 143.5,146.5 143.5,150.5 143.5,154.5C 145.179,154.715 146.179,154.048 146.5,152.5C 146.833,152.5 147.167,152.5 147.5,152.5C 151.178,155.581 153.845,154.914 155.5,150.5C 155.833,150.5 156.167,150.5 156.5,150.5C 156.414,151.496 156.748,152.329 157.5,153C 158.938,153.219 160.271,153.719 161.5,154.5C 159.668,155.057 158.335,156.057 157.5,157.5C 156.833,157.5 156.5,157.833 156.5,158.5C 156.167,158.5 155.833,158.5 155.5,158.5C 154.745,156.534 153.579,156.2 152,157.5C 151.374,155.009 150.541,155.009 149.5,157.5C 145.521,156.236 141.521,156.236 137.5,157.5C 133.32,155.446 131.986,152.28 133.5,148C 132.956,147.283 132.289,146.783 131.5,146.5C 132.035,144.554 133.368,143.554 135.5,143.5C 134.527,145.068 134.36,146.735 135,148.5C 139.745,150.657 139.578,152.324 134.5,153.5C 139.132,155.711 141.465,154.378 141.5,149.5C 140.29,149.068 139.29,148.401 138.5,147.5C 138.167,146.167 137.833,146.167 137.5,147.5C 136.957,147.44 136.624,147.107 136.5,146.5C 138.332,145.943 139.665,144.943 140.5,143.5C 141.167,143.5 141.5,143.167 141.5,142.5 Z"/></g>
<g><path style="opacity:0.931" fill="#4b4b4b" d="M 135.5,143.5 C 135.833,143.5 136.167,143.5 136.5,143.5C 137.833,143.5 139.167,143.5 140.5,143.5C 139.665,144.943 138.332,145.943 136.5,146.5C 136.624,147.107 136.957,147.44 137.5,147.5C 137.833,147.5 138.167,147.5 138.5,147.5C 139.29,148.401 140.29,149.068 141.5,149.5C 141.465,154.378 139.132,155.711 134.5,153.5C 139.578,152.324 139.745,150.657 135,148.5C 134.36,146.735 134.527,145.068 135.5,143.5 Z"/></g>
<g><path style="opacity:0.059" fill="#f3f3f3" d="M 180.5,148.5 C 181.239,148.369 181.906,148.536 182.5,149C 182.255,150.911 182.255,152.911 182.5,155C 181.119,156.534 179.786,156.368 178.5,154.5C 180.308,153.082 180.975,151.082 180.5,148.5 Z"/></g>
<g><path style="opacity:0.008" fill="#fefffe" d="M 63.5,150.5 C 64.1667,150.5 64.5,150.833 64.5,151.5C 64.1667,151.167 63.8333,150.833 63.5,150.5 Z"/></g>
<g><path style="opacity:0.976" fill="#454545" d="M 72.5,143.5 C 72.8333,143.5 73.1667,143.5 73.5,143.5C 71.9646,145.052 70.1313,146.385 68,147.5C 66.9231,150.262 67.7564,151.928 70.5,152.5C 70.8333,152.5 71.1667,152.5 71.5,152.5C 72.3764,152.369 73.0431,152.702 73.5,153.5C 71.604,154.466 69.604,154.799 67.5,154.5C 67.0679,153.29 66.4013,152.29 65.5,151.5C 65.5,150.833 65.5,150.167 65.5,149.5C 65.5,148.833 65.5,148.167 65.5,147.5C 65.3284,146.508 65.6618,145.842 66.5,145.5C 68.1417,143.919 70.1417,143.253 72.5,143.5 Z"/></g>
<g><path style="opacity:0.992" fill="#474747" d="M 179.5,146.5 C 179.833,146.5 180.167,146.5 180.5,146.5C 180.5,147.167 180.5,147.833 180.5,148.5C 180.975,151.082 180.308,153.082 178.5,154.5C 178.5,154.167 178.5,153.833 178.5,153.5C 178.5,152.5 178.5,151.5 178.5,150.5C 178.5,149.833 178.167,149.5 177.5,149.5C 177.5,148.833 177.167,148.5 176.5,148.5C 175.835,150.369 175.169,152.369 174.5,154.5C 173.893,154.376 173.56,154.043 173.5,153.5C 173.5,153.167 173.5,152.833 173.5,152.5C 173.5,152.167 173.5,151.833 173.5,151.5C 173.5,151.167 173.5,150.833 173.5,150.5C 173.5,150.167 173.5,149.833 173.5,149.5C 173.5,148.833 173.5,148.167 173.5,147.5C 175.265,146.539 177.265,146.205 179.5,146.5 Z"/></g>
<g><path style="opacity:0.925" fill="#555555" d="M 124.5,146.5 C 124.231,148.429 124.731,150.095 126,151.5C 126.483,150.552 126.649,149.552 126.5,148.5C 127.222,147.449 128.222,146.782 129.5,146.5C 128.5,149.833 127.5,153.167 126.5,156.5C 126.5,157.167 126.5,157.833 126.5,158.5C 126.167,158.5 125.833,158.5 125.5,158.5C 125.167,157.167 124.833,157.167 124.5,158.5C 123.833,158.5 123.167,158.5 122.5,158.5C 122.5,157.833 122.167,157.5 121.5,157.5C 121.821,155.952 122.821,155.285 124.5,155.5C 124.405,153.214 123.738,151.214 122.5,149.5C 122.5,149.167 122.5,148.833 122.5,148.5C 122.5,147.167 123.167,146.5 124.5,146.5 Z"/></g>
<g><path style="opacity:0.95" fill="#4c4c4c" d="M 153.5,146.5 C 153.932,147.71 154.599,148.71 155.5,149.5C 155.5,149.833 155.5,150.167 155.5,150.5C 153.845,154.914 151.178,155.581 147.5,152.5C 147.5,152.167 147.5,151.833 147.5,151.5C 147.651,147.686 149.651,146.019 153.5,146.5 Z"/></g>
<g><path style="opacity:0.023" fill="#eeeeee" d="M 149.5,148.5 C 150.5,148.5 151.5,148.5 152.5,148.5C 152.5,149.833 152.5,151.167 152.5,152.5C 151.5,152.5 150.5,152.5 149.5,152.5C 149.5,151.167 149.5,149.833 149.5,148.5 Z"/></g>
<g><path style="opacity:0.904" fill="#454545" d="M 163.5,146.5 C 163.82,149.898 163.487,153.232 162.5,156.5C 161.264,157.246 159.93,157.579 158.5,157.5C 158.167,157.5 157.833,157.5 157.5,157.5C 158.335,156.057 159.668,155.057 161.5,154.5C 160.271,153.719 158.938,153.219 157.5,153C 156.748,152.329 156.414,151.496 156.5,150.5C 156.5,149.833 156.5,149.167 156.5,148.5C 158.438,146.837 160.772,146.171 163.5,146.5 Z"/></g>
<g><path style="opacity:0.014" fill="#e4e4e4" d="M 161.5,149.5 C 161.333,152.957 160.333,153.29 158.5,150.5C 159.325,149.614 160.325,149.281 161.5,149.5 Z"/></g>
<g><path style="opacity:0.023" fill="#ececec" d="M 75.5,145.5 C 75.5,145.167 75.5,144.833 75.5,144.5C 78.5739,144.873 81.5739,145.539 84.5,146.5C 84.1866,149.247 84.52,151.914 85.5,154.5C 86.1667,152.5 86.8333,150.5 87.5,148.5C 88.1067,148.624 88.44,148.957 88.5,149.5C 87.1667,149.833 87.1667,150.167 88.5,150.5C 88.5,150.833 88.5,151.167 88.5,151.5C 87.1667,151.833 87.1667,152.167 88.5,152.5C 88.3691,153.376 88.7025,154.043 89.5,154.5C 90.1687,152.369 90.8354,150.369 91.5,148.5C 91.8333,149.833 92.1667,149.833 92.5,148.5C 92.9397,150.844 93.9397,152.844 95.5,154.5C 96.8333,154.167 96.8333,153.833 95.5,153.5C 95.5,152.833 95.5,152.167 95.5,151.5C 96.8333,151.167 96.8333,150.833 95.5,150.5C 95.5,150.167 95.5,149.833 95.5,149.5C 96.8333,149.167 96.8333,148.833 95.5,148.5C 94.6618,148.158 94.3284,147.492 94.5,146.5C 95.2216,146.082 95.7216,145.416 96,144.5C 98.0333,144.868 100.2,144.868 102.5,144.5C 103.386,145.325 103.719,146.325 103.5,147.5C 101.621,146.659 99.6208,146.325 97.5,146.5C 97.1774,150.226 97.5108,153.893 98.5,157.5C 99.3857,156.675 99.719,155.675 99.5,154.5C 102.367,154.631 104.033,153.297 104.5,150.5C 104.833,150.5 105.167,150.5 105.5,150.5C 105.33,151.822 105.663,152.989 106.5,154C 108.473,154.495 110.473,154.662 112.5,154.5C 112.5,153.167 112.5,151.833 112.5,150.5C 113.833,149.833 113.833,149.167 112.5,148.5C 112.5,148.167 112.5,147.833 112.5,147.5C 113.167,147.167 113.833,146.833 114.5,146.5C 114.187,149.247 114.52,151.914 115.5,154.5C 116.167,152.5 116.833,150.5 117.5,148.5C 118.107,148.624 118.44,148.957 118.5,149.5C 117.167,149.833 117.167,150.167 118.5,150.5C 118.5,151.833 118.5,153.167 118.5,154.5C 119.5,154.5 120.5,154.5 121.5,154.5C 121.5,152.833 121.5,151.167 121.5,149.5C 121.833,149.5 122.167,149.5 122.5,149.5C 123.738,151.214 124.405,153.214 124.5,155.5C 122.821,155.285 121.821,155.952 121.5,157.5C 120.833,157.5 120.5,157.833 120.5,158.5C 120.167,158.5 119.833,158.5 119.5,158.5C 118.132,157.528 116.632,156.528 115,155.5C 114.667,156.167 114.333,156.833 114,157.5C 111.173,157.723 108.34,157.056 105.5,155.5C 103.739,156.035 102.406,157.035 101.5,158.5C 99.8333,158.5 98.1667,158.5 96.5,158.5C 96.1667,157.167 95.8333,157.167 95.5,158.5C 95.1667,158.5 94.8333,158.5 94.5,158.5C 91.5955,156.85 88.5955,156.183 85.5,156.5C 83.7116,155.378 81.7116,155.211 79.5,156C 81.5951,156.556 81.7618,157.056 80,157.5C 78.3576,157.022 77.1909,156.022 76.5,154.5C 81.5,155.5 83.5,153.5 82.5,148.5C 80.8583,146.919 78.8583,146.253 76.5,146.5C 75.8333,146.5 75.5,146.167 75.5,145.5 Z"/></g>
<g><path style="opacity:0.961" fill="#4f4f4f" d="M 106.5,146.5 C 108.621,146.325 110.621,146.659 112.5,147.5C 112.5,147.833 112.5,148.167 112.5,148.5C 112.5,149.167 112.5,149.833 112.5,150.5C 112.5,151.833 112.5,153.167 112.5,154.5C 110.473,154.662 108.473,154.495 106.5,154C 105.663,152.989 105.33,151.822 105.5,150.5C 107.086,149.852 108.753,149.352 110.5,149C 108.563,148.878 107.23,148.045 106.5,146.5 Z"/></g>
<g><path style="opacity:0.02" fill="#e3e3e3" d="M 107.5,152.5 C 108.251,151.427 109.251,151.26 110.5,152C 109.648,153.728 108.648,153.895 107.5,152.5 Z"/></g>
<g><path style="opacity:0.973" fill="#484848" d="M 103.5,147.5 C 103.5,148.167 103.833,148.5 104.5,148.5C 104.5,149.167 104.5,149.833 104.5,150.5C 104.033,153.297 102.367,154.631 99.5,154.5C 99.719,155.675 99.3857,156.675 98.5,157.5C 97.5108,153.893 97.1774,150.226 97.5,146.5C 99.6208,146.325 101.621,146.659 103.5,147.5 Z"/></g>
<g><path style="opacity:0.014" fill="#eaeaea" d="M 100.5,148.5 C 102.104,149.287 102.771,150.62 102.5,152.5C 101.5,152.5 100.5,152.5 99.5,152.5C 99.5,151.5 99.5,150.5 99.5,149.5C 100.167,149.5 100.5,149.167 100.5,148.5 Z"/></g>
<g><path style="opacity:0.976" fill="#494949" d="M 84.5,146.5 C 87.8333,146.5 91.1667,146.5 94.5,146.5C 94.3284,147.492 94.6618,148.158 95.5,148.5C 95.5,148.833 95.5,149.167 95.5,149.5C 95.5,149.833 95.5,150.167 95.5,150.5C 95.5,150.833 95.5,151.167 95.5,151.5C 95.5,152.167 95.5,152.833 95.5,153.5C 95.5,153.833 95.5,154.167 95.5,154.5C 93.9397,152.844 92.9397,150.844 92.5,148.5C 92.1667,148.5 91.8333,148.5 91.5,148.5C 90.8354,150.369 90.1687,152.369 89.5,154.5C 88.7025,154.043 88.3691,153.376 88.5,152.5C 88.5,152.167 88.5,151.833 88.5,151.5C 88.5,151.167 88.5,150.833 88.5,150.5C 88.5,150.167 88.5,149.833 88.5,149.5C 88.44,148.957 88.1067,148.624 87.5,148.5C 86.8333,150.5 86.1667,152.5 85.5,154.5C 84.52,151.914 84.1866,149.247 84.5,146.5 Z"/></g>
<g><path style="opacity:0.11" fill="#eaeaea" d="M 94.5,146.5 C 91.1667,146.5 87.8333,146.5 84.5,146.5C 84.3691,145.624 84.7025,144.957 85.5,144.5C 88.3717,145.747 91.2051,145.747 94,144.5C 94.4643,145.094 94.631,145.761 94.5,146.5 Z"/></g>
<g><path style="opacity:0.969" fill="#4a4a4a" d="M 143.5,142.5 C 144.167,142.5 144.833,142.5 145.5,142.5C 146.167,142.5 146.5,142.833 146.5,143.5C 145.566,144.568 145.232,145.901 145.5,147.5C 145.216,149.415 145.549,151.081 146.5,152.5C 146.179,154.048 145.179,154.715 143.5,154.5C 143.5,150.5 143.5,146.5 143.5,142.5 Z"/></g>
<g><path style="opacity:0.067" fill="#e9e9e9" d="M 64.5,151.5 C 64.8333,151.5 65.1667,151.5 65.5,151.5C 66.4013,152.29 67.0679,153.29 67.5,154.5C 65.8564,154.19 64.8564,153.19 64.5,151.5 Z"/></g>
<g><path style="opacity:0.963" fill="#454545" d="M 76.5,146.5 C 78.8583,146.253 80.8583,146.919 82.5,148.5C 83.5,153.5 81.5,155.5 76.5,154.5C 75.1667,151.833 75.1667,149.167 76.5,146.5 Z"/></g>
<g><path style="opacity:0.059" fill="#e7e7e7" d="M 77.5,149.5 C 78.209,148.596 79.209,148.263 80.5,148.5C 80.5,149.833 80.5,151.167 80.5,152.5C 78.8212,152.715 77.8212,152.048 77.5,150.5C 78.8333,150.167 78.8333,149.833 77.5,149.5 Z"/></g>
<g><path style="opacity:0.019" fill="#ececec" d="M 170.5,146.5 C 164.739,146.709 164.406,147.542 169.5,149C 165.87,149.271 164.87,150.938 166.5,154C 168.134,154.494 169.801,154.66 171.5,154.5C 171.5,152.167 171.5,149.833 171.5,147.5C 171.833,147.5 172.167,147.5 172.5,147.5C 172.328,148.492 172.662,149.158 173.5,149.5C 173.5,149.833 173.5,150.167 173.5,150.5C 172.167,150.833 172.167,151.167 173.5,151.5C 173.5,151.833 173.5,152.167 173.5,152.5C 172.167,152.833 172.167,153.167 173.5,153.5C 173.56,154.043 173.893,154.376 174.5,154.5C 175.169,152.369 175.835,150.369 176.5,148.5C 177.167,148.5 177.5,148.833 177.5,149.5C 178.167,149.5 178.5,149.833 178.5,150.5C 178.5,151.5 178.5,152.5 178.5,153.5C 177.637,152.537 176.97,152.537 176.5,153.5C 177.127,154.417 177.461,155.417 177.5,156.5C 174.607,157.591 172.107,157.591 170,156.5C 168.052,157.109 166.218,157.776 164.5,158.5C 164.167,158.5 163.833,158.5 163.5,158.5C 163.167,157.167 162.833,157.167 162.5,158.5C 161.167,158.5 159.833,158.5 158.5,158.5C 158.5,158.167 158.5,157.833 158.5,157.5C 159.93,157.579 161.264,157.246 162.5,156.5C 163.487,153.232 163.82,149.898 163.5,146.5C 164.458,146.047 165.292,145.381 166,144.5C 167.333,145.833 168.667,145.833 170,144.5C 170.464,145.094 170.631,145.761 170.5,146.5 Z"/></g>
<g><path style="opacity:0.961" fill="#464646" d="M 170.5,146.5 C 171.167,146.5 171.5,146.833 171.5,147.5C 171.5,149.833 171.5,152.167 171.5,154.5C 169.801,154.66 168.134,154.494 166.5,154C 164.87,150.938 165.87,149.271 169.5,149C 164.406,147.542 164.739,146.709 170.5,146.5 Z"/></g>
<g><path style="opacity:0.008" fill="#fefffe" d="M 71.5,156.5 C 72.8333,157.167 72.8333,157.167 71.5,156.5 Z"/></g>
<g><path style="opacity:0.012" fill="#fefffe" d="M 74.5,156.5 C 75.8333,157.167 75.8333,157.167 74.5,156.5 Z"/></g>
<g><path style="opacity:0.004" fill="#fefffe" d="M 85.5,156.5 C 84.8333,157.167 84.8333,157.167 85.5,156.5 Z"/></g>
<g><path style="opacity:0.01" fill="#fefffe" d="M 127.5,156.5 C 128.239,156.369 128.906,156.536 129.5,157C 128.563,157.692 127.897,157.525 127.5,156.5 Z"/></g>
<g><path style="opacity:0.039" fill="#eeeeee" d="M 177.5,156.5 C 178.239,156.369 178.906,156.536 179.5,157C 178.563,157.692 177.897,157.525 177.5,156.5 Z"/></g>
</svg>
